<svg id="svg" version="1.1" xmlns="http://www.w3.org/2000/svg" xmlns:xlink="http://www.w3.org/1999/xlink" width="400" height="400" viewBox="0, 0, 400,400"><g id="svgg"><path id="path0" d="M84.800 258.582 L 84.800 400.000 103.800 400.000 L 122.800 400.000 122.800 341.598 L 122.800 283.197 167.496 283.298 L 212.191 283.400 248.596 341.682 L 285.000 399.965 306.743 399.982 C 323.979 399.996,328.446 399.896,328.294 399.500 C 328.089 398.968,323.116 391.371,300.600 357.200 C 286.065 335.140,283.562 331.341,278.597 323.800 C 273.445 315.977,266.123 304.869,255.261 288.400 C 248.696 278.447,248.770 278.820,253.200 277.974 C 286.377 271.643,311.073 247.921,316.951 216.738 C 319.462 203.416,319.022 187.118,315.828 175.158 C 309.456 151.294,292.690 133.767,267.528 124.666 C 258.160 121.277,251.775 119.911,236.000 117.922 C 233.209 117.570,212.630 117.406,158.500 117.304 L 84.800 117.164 84.800 258.582 M232.200 148.555 C 265.184 154.239,280.214 170.038,280.191 199.000 C 280.166 229.786,263.329 247.513,229.400 252.474 C 226.570 252.887,214.802 253.000,174.400 253.000 L 123.000 253.000 122.897 200.800 C 122.841 172.090,122.883 148.366,122.992 148.081 C 123.333 147.184,226.852 147.633,232.200 148.555 " stroke="none" fill="#044424" fill-rule="evenodd"></path><path id="path1" d="M0.000 200.000 L 0.000 400.000 41.999 400.000 L 83.999 400.000 84.099 258.300 L 84.200 116.600 155.000 116.469 C 225.071 116.340,230.102 116.410,240.400 117.647 C 248.733 118.648,258.956 120.772,264.200 122.592 C 300.775 135.283,319.568 161.204,319.596 199.000 C 319.601 205.721,317.907 218.092,316.278 223.226 C 315.969 224.202,315.477 225.810,315.185 226.800 C 311.490 239.352,300.606 254.496,289.085 263.115 C 283.227 267.497,271.538 274.000,269.519 274.000 C 269.211 274.000,268.789 274.155,268.580 274.345 C 267.835 275.021,259.039 277.565,252.270 279.062 C 250.165 279.527,249.504 278.287,261.697 296.738 C 275.263 317.267,284.895 331.880,297.199 350.600 C 302.405 358.520,309.632 369.500,313.261 375.000 C 326.295 394.757,329.200 399.245,329.200 399.620 C 329.200 399.857,342.479 400.000,364.600 400.000 L 400.000 400.000 400.000 200.000 L 400.000 0.000 200.000 0.000 L 0.000 0.000 0.000 200.000 M123.600 200.400 L 123.600 252.400 171.900 252.405 C 218.271 252.409,226.656 252.239,232.200 251.180 C 240.627 249.570,242.254 249.180,245.400 248.017 C 246.720 247.529,248.144 247.027,248.564 246.902 C 262.366 242.775,275.141 227.887,278.341 212.200 C 285.036 179.379,268.572 155.526,235.400 149.987 C 226.362 148.478,223.349 148.401,172.900 148.401 L 123.600 148.400 123.600 200.400 M123.600 342.000 L 123.600 400.000 203.814 400.000 L 284.028 400.000 283.583 399.168 C 283.338 398.710,270.792 378.595,255.704 354.468 C 240.615 330.341,227.399 309.205,226.335 307.500 C 223.985 303.735,221.100 299.119,218.335 294.700 C 217.200 292.885,215.555 290.230,214.680 288.800 C 213.806 287.370,212.742 285.705,212.318 285.100 L 211.546 284.000 167.573 284.000 L 123.600 284.000 123.600 342.000 " stroke="none" fill="#bbcbbb" fill-rule="evenodd"></path><path id="path2" d="M84.198 258.600 C 84.198 336.480,84.244 368.400,84.300 329.532 C 84.356 290.665,84.356 226.945,84.300 187.932 C 84.244 148.920,84.198 180.720,84.198 258.600 M318.893 193.200 C 318.893 193.970,318.975 194.285,319.076 193.900 C 319.176 193.515,319.176 192.885,319.076 192.500 C 318.975 192.115,318.893 192.430,318.893 193.200 M318.901 205.000 C 318.905 205.880,318.987 206.193,319.083 205.695 C 319.179 205.198,319.175 204.478,319.075 204.095 C 318.975 203.713,318.896 204.120,318.901 205.000 M221.700 252.676 C 222.085 252.776,222.715 252.776,223.100 252.676 C 223.485 252.575,223.170 252.493,222.400 252.493 C 221.630 252.493,221.315 252.575,221.700 252.676 " stroke="none" fill="#75967e" fill-rule="evenodd"></path><path id="path3" d="M84.585 117.300 C 84.481 117.575,84.442 181.340,84.498 259.000 L 84.601 400.200 84.701 258.701 L 84.800 117.202 155.100 117.100 L 225.400 116.998 155.087 116.899 C 99.132 116.820,84.736 116.902,84.585 117.300 M226.900 117.491 C 227.725 117.578,229.075 117.578,229.900 117.491 C 230.725 117.405,230.050 117.334,228.400 117.334 C 226.750 117.334,226.075 117.405,226.900 117.491 M233.633 117.751 C 233.725 117.835,235.240 118.002,237.000 118.123 C 239.406 118.288,239.753 118.258,238.400 118.001 C 236.550 117.650,233.336 117.481,233.633 117.751 M243.000 118.800 C 244.692 119.231,246.144 119.231,244.800 118.800 C 244.250 118.624,243.350 118.483,242.800 118.487 C 241.902 118.494,241.922 118.526,243.000 118.800 M252.033 120.144 C 252.125 120.223,252.740 120.408,253.400 120.556 C 254.276 120.752,254.438 120.715,254.000 120.418 C 253.460 120.053,251.632 119.798,252.033 120.144 M278.000 128.979 C 278.000 129.089,278.540 129.459,279.200 129.800 C 279.860 130.141,280.400 130.331,280.400 130.221 C 280.400 130.111,279.860 129.741,279.200 129.400 C 278.540 129.059,278.000 128.869,278.000 128.979 M286.086 133.800 C 286.895 134.350,287.699 134.800,287.872 134.800 C 288.044 134.800,287.523 134.350,286.714 133.800 C 285.905 133.250,285.101 132.800,284.928 132.800 C 284.756 132.800,285.277 133.250,286.086 133.800 M294.158 140.013 C 295.675 141.436,297.073 142.661,297.266 142.736 C 297.702 142.905,293.293 138.782,292.200 137.999 C 291.760 137.683,292.641 138.590,294.158 140.013 M299.610 145.086 C 299.615 145.259,300.560 146.400,301.710 147.622 C 303.741 149.782,303.499 149.394,300.877 146.286 C 300.175 145.453,299.604 144.913,299.610 145.086 M122.985 148.100 C 122.880 148.375,122.841 172.090,122.897 200.800 L 123.000 253.000 172.100 253.002 L 221.200 253.005 172.200 252.901 L 123.200 252.797 123.200 200.400 L 123.200 148.003 173.300 147.900 L 223.400 147.797 173.287 147.698 C 133.493 147.620,123.136 147.703,122.985 148.100 M226.033 148.151 C 226.125 148.234,227.460 148.402,229.000 148.526 C 231.152 148.698,231.430 148.669,230.200 148.398 C 228.583 148.042,225.726 147.873,226.033 148.151 M234.000 149.200 C 234.550 149.376,235.450 149.517,236.000 149.513 C 236.898 149.506,236.878 149.474,235.800 149.200 C 234.108 148.769,232.656 148.769,234.000 149.200 M238.200 150.000 C 238.640 150.189,239.360 150.338,239.800 150.332 C 240.443 150.323,240.404 150.257,239.600 150.000 C 238.232 149.562,237.181 149.562,238.200 150.000 M241.800 150.800 C 242.240 150.989,242.870 151.144,243.200 151.144 C 243.578 151.144,243.504 151.017,243.000 150.800 C 242.560 150.611,241.930 150.456,241.600 150.456 C 241.222 150.456,241.296 150.583,241.800 150.800 M306.217 153.664 C 308.419 156.920,309.251 158.010,308.611 156.800 C 307.936 155.527,304.672 150.768,304.326 150.554 C 304.125 150.430,304.977 151.830,306.217 153.664 M254.800 155.379 C 254.800 155.489,255.340 155.859,256.000 156.200 C 256.660 156.541,257.200 156.731,257.200 156.621 C 257.200 156.511,256.660 156.141,256.000 155.800 C 255.340 155.459,254.800 155.269,254.800 155.379 M257.800 157.077 C 258.509 157.777,264.442 161.591,264.191 161.186 C 264.058 160.971,262.746 160.017,261.275 159.066 C 258.109 157.020,257.235 156.520,257.800 157.077 M267.400 164.400 C 268.483 165.500,269.460 166.400,269.570 166.400 C 269.680 166.400,268.883 165.500,267.800 164.400 C 266.717 163.300,265.740 162.400,265.630 162.400 C 265.520 162.400,266.317 163.300,267.400 164.400 M272.223 170.300 C 274.279 173.305,274.757 173.876,274.001 172.427 C 273.367 171.210,270.786 167.600,270.550 167.600 C 270.454 167.600,271.207 168.815,272.223 170.300 M315.256 172.800 C 315.256 173.130,315.411 173.760,315.600 174.200 C 315.817 174.704,315.944 174.778,315.944 174.400 C 315.944 174.070,315.789 173.440,315.600 173.000 C 315.383 172.496,315.256 172.422,315.256 172.800 M316.056 176.000 C 316.056 176.330,316.211 176.960,316.400 177.400 C 316.617 177.904,316.744 177.978,316.744 177.600 C 316.744 177.270,316.589 176.640,316.400 176.200 C 316.183 175.696,316.056 175.622,316.056 176.000 M317.073 180.400 C 317.204 181.390,317.376 182.275,317.456 182.367 C 317.757 182.714,317.528 180.164,317.190 179.400 C 316.953 178.866,316.914 179.198,317.073 180.400 M317.872 185.800 C 317.999 186.900,318.169 187.875,318.251 187.967 C 318.532 188.282,318.320 185.799,317.980 184.800 C 317.751 184.126,317.716 184.451,317.872 185.800 M318.531 193.800 C 318.533 195.340,318.605 195.921,318.692 195.091 C 318.779 194.261,318.777 193.001,318.689 192.291 C 318.600 191.581,318.529 192.260,318.531 193.800 M280.162 199.000 C 280.162 202.520,280.224 203.906,280.298 202.081 C 280.372 200.256,280.372 197.376,280.297 195.681 C 280.222 193.986,280.161 195.480,280.162 199.000 M318.914 198.600 C 318.917 199.700,318.995 200.103,319.087 199.495 C 319.179 198.886,319.177 197.986,319.082 197.495 C 318.987 197.003,318.911 197.500,318.914 198.600 M318.537 203.800 C 318.539 205.560,318.609 206.230,318.693 205.289 C 318.778 204.349,318.777 202.909,318.691 202.089 C 318.605 201.270,318.536 202.040,318.537 203.800 M279.400 208.800 C 279.245 209.928,279.202 210.936,279.306 211.039 C 279.409 211.142,279.616 210.300,279.767 209.167 C 279.917 208.034,279.959 207.026,279.861 206.928 C 279.763 206.829,279.555 207.672,279.400 208.800 M318.093 210.000 C 318.093 210.770,318.175 211.085,318.276 210.700 C 318.376 210.315,318.376 209.685,318.276 209.300 C 318.175 208.915,318.093 209.230,318.093 210.000 M278.600 213.200 C 278.448 213.891,278.407 214.541,278.509 214.642 C 278.611 214.744,278.809 214.253,278.950 213.550 C 279.091 212.847,279.131 212.198,279.041 212.108 C 278.950 212.017,278.752 212.509,278.600 213.200 M317.050 216.050 C 316.909 216.753,316.869 217.402,316.959 217.492 C 317.050 217.583,317.248 217.091,317.400 216.400 C 317.552 215.709,317.593 215.059,317.491 214.958 C 317.389 214.856,317.191 215.347,317.050 216.050 M268.834 233.353 L 267.869 234.600 269.013 233.512 C 269.643 232.914,270.077 232.353,269.979 232.265 C 269.880 232.177,269.365 232.667,268.834 233.353 M265.365 237.033 L 263.000 239.267 265.500 237.173 C 267.789 235.257,268.244 234.800,267.865 234.800 C 267.790 234.800,266.665 235.805,265.365 237.033 M308.800 239.200 C 308.351 240.080,308.074 240.800,308.184 240.800 C 308.294 240.800,308.751 240.080,309.200 239.200 C 309.649 238.320,309.926 237.600,309.816 237.600 C 309.706 237.600,309.249 238.320,308.800 239.200 M261.200 240.449 C 259.806 241.671,259.805 241.672,261.088 240.819 C 261.796 240.348,262.482 239.791,262.612 239.581 C 262.997 238.957,262.677 239.154,261.200 240.449 M255.900 243.829 C 254.405 244.640,254.496 244.978,256.000 244.200 C 256.660 243.859,257.200 243.494,257.200 243.390 C 257.200 243.132,257.157 243.147,255.900 243.829 M305.312 244.900 C 304.890 245.615,303.312 247.730,301.804 249.600 C 300.297 251.470,299.386 252.735,299.779 252.412 C 300.662 251.686,305.312 245.731,305.957 244.500 C 306.679 243.121,306.179 243.431,305.312 244.900 M241.000 250.000 C 240.496 250.217,240.422 250.344,240.800 250.344 C 241.130 250.344,241.760 250.189,242.200 250.000 C 242.704 249.783,242.778 249.656,242.400 249.656 C 242.070 249.656,241.440 249.811,241.000 250.000 M237.400 250.800 C 236.381 251.238,237.432 251.238,238.800 250.800 C 239.604 250.543,239.643 250.477,239.000 250.468 C 238.560 250.462,237.840 250.611,237.400 250.800 M226.400 252.400 C 224.775 252.653,224.736 252.682,226.000 252.705 C 226.770 252.719,228.300 252.590,229.400 252.418 C 231.292 252.124,231.313 252.107,229.800 252.114 C 228.920 252.117,227.390 252.246,226.400 252.400 M295.978 256.300 L 294.600 257.800 296.100 256.422 C 297.496 255.138,297.784 254.800,297.478 254.800 C 297.412 254.800,296.737 255.475,295.978 256.300 M291.200 260.465 C 289.990 261.582,289.540 262.130,290.200 261.684 C 291.329 260.921,293.954 258.380,293.575 258.417 C 293.479 258.427,292.410 259.348,291.200 260.465 M287.000 263.632 C 284.627 265.426,284.308 265.932,286.533 264.372 C 288.214 263.194,289.129 262.375,288.724 262.411 C 288.656 262.417,287.880 262.967,287.000 263.632 M283.100 266.229 C 281.605 267.040,281.696 267.378,283.200 266.600 C 283.860 266.259,284.400 265.894,284.400 265.790 C 284.400 265.532,284.357 265.547,283.100 266.229 M249.853 280.100 C 251.951 283.600,256.816 290.718,255.799 288.800 C 255.127 287.533,249.890 279.600,249.726 279.600 C 249.631 279.600,249.688 279.825,249.853 280.100 M122.896 341.700 C 122.949 373.875,123.039 390.750,123.096 379.200 C 123.370 323.587,123.371 283.200,123.100 283.200 C 122.935 283.200,122.843 309.525,122.896 341.700 M214.124 287.000 C 214.462 287.660,215.038 288.560,215.404 289.000 C 215.770 289.440,215.665 289.080,215.170 288.200 C 214.080 286.258,213.264 285.322,214.124 287.000 M218.124 293.400 C 218.462 294.060,219.038 294.960,219.404 295.400 C 219.770 295.840,219.665 295.480,219.170 294.600 C 218.080 292.658,217.264 291.722,218.124 293.400 M222.124 299.800 C 222.462 300.460,223.038 301.360,223.404 301.800 C 223.770 302.240,223.665 301.880,223.170 301.000 C 222.080 299.058,221.264 298.122,222.124 299.800 M226.124 306.200 C 226.462 306.860,227.038 307.760,227.404 308.200 C 227.770 308.640,227.665 308.280,227.170 307.400 C 226.080 305.458,225.264 304.522,226.124 306.200 M269.022 309.200 C 269.575 310.179,278.849 324.182,279.089 324.400 C 279.925 325.161,270.018 309.895,269.095 309.000 C 268.814 308.727,268.791 308.791,269.022 309.200 M230.124 312.600 C 230.462 313.260,231.038 314.160,231.404 314.600 C 231.770 315.040,231.665 314.680,231.170 313.800 C 230.080 311.858,229.264 310.922,230.124 312.600 M234.124 319.000 C 234.462 319.660,235.038 320.560,235.404 321.000 C 235.770 321.440,235.665 321.080,235.170 320.200 C 234.080 318.258,233.264 317.322,234.124 319.000 M238.124 325.400 C 238.462 326.060,239.038 326.960,239.404 327.400 C 239.770 327.840,239.665 327.480,239.170 326.600 C 238.080 324.658,237.264 323.722,238.124 325.400 M242.124 331.800 C 242.462 332.460,243.038 333.360,243.404 333.800 C 243.770 334.240,243.665 333.880,243.170 333.000 C 242.080 331.058,241.264 330.122,242.124 331.800 M246.124 338.200 C 246.462 338.860,247.038 339.760,247.404 340.200 C 247.770 340.640,247.665 340.280,247.170 339.400 C 246.080 337.458,245.264 336.522,246.124 338.200 M250.124 344.600 C 250.462 345.260,251.038 346.160,251.404 346.600 C 251.770 347.040,251.665 346.680,251.170 345.800 C 250.080 343.858,249.264 342.922,250.124 344.600 M292.222 344.400 C 292.794 345.412,300.436 356.971,300.680 357.192 C 301.500 357.938,293.202 345.080,292.295 344.200 C 292.014 343.927,291.991 343.991,292.222 344.400 M254.124 351.000 C 254.462 351.660,255.038 352.560,255.404 353.000 C 255.770 353.440,255.665 353.080,255.170 352.200 C 254.080 350.258,253.264 349.322,254.124 351.000 M258.394 357.900 C 258.859 358.725,259.612 359.850,260.067 360.400 L 260.895 361.400 260.195 360.235 C 259.811 359.594,259.141 358.469,258.708 357.735 C 257.625 355.898,257.348 356.044,258.394 357.900 M262.394 364.300 C 262.859 365.125,263.612 366.250,264.067 366.800 L 264.895 367.800 264.195 366.635 C 263.811 365.994,263.141 364.869,262.708 364.135 C 261.625 362.298,261.348 362.444,262.394 364.300 M266.394 370.700 C 266.859 371.525,267.612 372.650,268.067 373.200 L 268.895 374.200 268.195 373.035 C 267.811 372.394,267.141 371.269,266.708 370.535 C 265.625 368.698,265.348 368.844,266.394 370.700 M270.394 377.100 C 270.859 377.925,271.612 379.050,272.067 379.600 L 272.895 380.600 272.195 379.435 C 271.811 378.794,271.141 377.669,270.708 376.935 C 269.625 375.098,269.348 375.244,270.394 377.100 M313.822 377.200 C 314.394 378.212,322.036 389.771,322.280 389.992 C 323.100 390.738,314.802 377.880,313.895 377.000 C 313.614 376.727,313.591 376.791,313.822 377.200 M274.394 383.500 C 274.859 384.325,275.612 385.450,276.067 386.000 L 276.895 387.000 276.195 385.835 C 275.811 385.194,275.141 384.069,274.708 383.335 C 273.625 381.498,273.348 381.644,274.394 383.500 M278.400 389.720 C 278.400 390.104,280.445 393.200,280.699 393.200 C 280.878 393.200,280.241 392.119,278.939 390.211 C 278.642 389.777,278.400 389.556,278.400 389.720 M282.402 396.086 C 282.401 396.243,282.940 397.224,283.600 398.264 C 284.260 399.305,284.799 399.986,284.798 399.778 C 284.797 399.570,284.258 398.590,283.600 397.600 C 282.942 396.610,282.403 395.929,282.402 396.086 " stroke="none" fill="#547e64" fill-rule="evenodd"></path><path id="path4" d="M84.262 116.700 C 84.094 116.971,133.949 116.970,203.600 116.697 C 218.010 116.640,197.096 116.550,157.124 116.497 C 117.152 116.444,84.364 116.535,84.262 116.700 M231.300 117.076 C 231.685 117.176,232.315 117.176,232.700 117.076 C 233.085 116.975,232.770 116.893,232.000 116.893 C 231.230 116.893,230.915 116.975,231.300 117.076 M234.691 117.489 C 235.401 117.577,236.661 117.579,237.491 117.492 C 238.321 117.405,237.740 117.333,236.200 117.331 C 234.660 117.329,233.981 117.400,234.691 117.489 M242.705 118.283 C 243.202 118.379,243.922 118.375,244.305 118.275 C 244.687 118.175,244.280 118.096,243.400 118.101 C 242.520 118.105,242.207 118.187,242.705 118.283 M247.905 119.083 C 248.402 119.179,249.122 119.175,249.505 119.075 C 249.887 118.975,249.480 118.896,248.600 118.901 C 247.720 118.905,247.407 118.987,247.905 119.083 M260.804 121.721 C 261.111 122.052,267.262 124.071,267.436 123.898 C 267.518 123.815,266.464 123.371,265.093 122.912 C 261.704 121.777,260.562 121.460,260.804 121.721 M280.000 129.620 C 281.387 130.561,282.178 130.835,281.200 130.036 C 280.650 129.586,280.020 129.217,279.800 129.215 C 279.580 129.213,279.670 129.396,280.000 129.620 M286.000 132.911 C 286.000 132.987,286.585 133.478,287.300 134.001 C 288.104 134.590,288.384 134.687,288.033 134.255 C 287.500 133.599,286.000 132.607,286.000 132.911 M289.800 135.787 C 290.460 136.367,291.540 137.206,292.200 137.653 L 293.400 138.466 292.200 137.413 C 291.540 136.833,290.460 135.994,289.800 135.547 L 288.600 134.734 289.800 135.787 M297.807 142.900 C 300.034 145.155,302.630 147.900,303.577 149.000 C 304.524 150.100,304.894 150.400,304.398 149.667 C 303.378 148.156,294.453 138.800,294.032 138.800 C 293.882 138.800,295.580 140.645,297.807 142.900 M123.385 148.500 C 123.280 148.775,123.241 172.310,123.297 200.800 L 123.400 252.600 172.200 252.602 L 221.000 252.605 172.300 252.501 L 123.600 252.397 123.600 200.400 L 123.600 148.403 173.500 148.300 L 223.400 148.197 173.487 148.098 C 133.853 148.020,123.536 148.103,123.385 148.500 M224.500 148.676 C 224.885 148.776,225.515 148.776,225.900 148.676 C 226.285 148.575,225.970 148.493,225.200 148.493 C 224.430 148.493,224.115 148.575,224.500 148.676 M228.500 149.087 C 229.105 149.178,230.095 149.178,230.700 149.087 C 231.305 148.995,230.810 148.920,229.600 148.920 C 228.390 148.920,227.895 148.995,228.500 149.087 M234.705 149.883 C 235.202 149.979,235.922 149.975,236.305 149.875 C 236.687 149.775,236.280 149.696,235.400 149.701 C 234.520 149.705,234.207 149.787,234.705 149.883 M242.033 151.344 C 242.125 151.423,242.740 151.608,243.400 151.756 C 244.276 151.952,244.438 151.915,244.000 151.618 C 243.460 151.253,241.632 150.998,242.033 151.344 M247.800 153.184 C 250.927 154.485,252.939 155.202,252.600 154.896 C 252.075 154.422,248.021 152.793,247.447 152.825 C 247.201 152.839,247.360 153.000,247.800 153.184 M264.883 162.740 C 266.139 163.892,268.102 165.861,269.245 167.117 C 270.388 168.373,270.949 168.860,270.491 168.200 C 269.611 166.930,264.752 162.133,263.400 161.199 C 262.960 160.895,263.627 161.589,264.883 162.740 M312.744 164.572 C 313.325 165.986,313.853 166.998,313.917 166.821 C 314.047 166.463,312.148 162.000,311.866 162.000 C 311.768 162.000,312.163 163.157,312.744 164.572 M314.416 168.654 C 314.407 168.904,314.663 169.714,314.984 170.454 C 315.306 171.194,315.576 171.596,315.584 171.346 C 315.593 171.096,315.337 170.286,315.016 169.546 C 314.694 168.806,314.424 168.404,314.416 168.654 M315.858 173.200 C 316.175 174.925,316.402 175.251,316.394 173.967 C 316.391 173.435,316.211 172.730,315.994 172.400 C 315.718 171.978,315.677 172.215,315.858 173.200 M275.544 177.372 C 276.125 178.786,276.653 179.798,276.717 179.621 C 276.847 179.263,274.948 174.800,274.666 174.800 C 274.568 174.800,274.963 175.957,275.544 177.372 M316.658 176.400 C 316.975 178.125,317.202 178.451,317.194 177.167 C 317.191 176.635,317.011 175.930,316.794 175.600 C 316.518 175.178,316.477 175.415,316.658 176.400 M317.701 181.000 C 317.705 181.880,317.787 182.193,317.883 181.695 C 317.979 181.198,317.975 180.478,317.875 180.095 C 317.775 179.713,317.696 180.120,317.701 181.000 M318.509 186.400 C 318.509 187.390,318.587 187.795,318.682 187.300 C 318.778 186.805,318.778 185.995,318.682 185.500 C 318.587 185.005,318.509 185.410,318.509 186.400 M278.901 188.600 C 278.905 189.480,278.987 189.793,279.083 189.295 C 279.179 188.798,279.175 188.078,279.075 187.695 C 278.975 187.313,278.896 187.720,278.901 188.600 M318.914 190.200 C 318.917 191.300,318.995 191.703,319.087 191.095 C 319.179 190.486,319.177 189.586,319.082 189.095 C 318.987 188.603,318.911 189.100,318.914 190.200 M279.762 199.000 C 279.762 202.520,279.824 203.906,279.898 202.081 C 279.972 200.256,279.972 197.376,279.897 195.681 C 279.822 193.986,279.761 195.480,279.762 199.000 M319.358 199.000 C 319.358 202.080,319.421 203.287,319.497 201.682 C 319.573 200.078,319.573 197.558,319.496 196.082 C 319.419 194.607,319.357 195.920,319.358 199.000 M278.914 209.400 C 278.917 210.500,278.995 210.903,279.087 210.295 C 279.179 209.686,279.177 208.786,279.082 208.295 C 278.987 207.803,278.911 208.300,278.914 209.400 M318.514 210.600 C 318.517 211.700,318.595 212.103,318.687 211.495 C 318.779 210.886,318.777 209.986,318.682 209.495 C 318.587 209.003,318.511 209.500,318.514 210.600 M277.112 216.800 C 276.976 217.350,276.750 218.250,276.610 218.800 C 276.452 219.422,276.597 219.279,276.992 218.421 C 277.342 217.662,277.568 216.762,277.494 216.421 C 277.410 216.031,277.268 216.172,277.112 216.800 M316.249 221.815 C 316.112 222.173,316.015 222.766,316.034 223.133 C 316.053 223.500,316.227 223.269,316.421 222.620 C 316.798 221.358,316.665 220.733,316.249 221.815 M315.246 225.267 C 315.221 225.634,315.096 226.264,314.970 226.667 C 314.752 227.362,314.763 227.363,315.197 226.687 C 315.448 226.296,315.573 225.666,315.473 225.287 C 315.311 224.668,315.288 224.666,315.246 225.267 M271.542 228.896 C 270.804 230.049,269.664 231.624,269.009 232.396 C 268.164 233.393,268.091 233.568,268.758 233.000 C 269.882 232.043,273.524 226.800,273.065 226.800 C 272.965 226.800,272.280 227.743,271.542 228.896 M313.913 229.381 C 313.542 230.381,313.317 231.200,313.414 231.200 C 313.693 231.200,314.831 228.294,314.703 227.909 C 314.639 227.718,314.284 228.380,313.913 229.381 M312.715 232.210 C 312.592 232.645,312.369 233.360,312.220 233.800 C 312.071 234.240,312.242 234.094,312.600 233.476 C 312.958 232.858,313.181 232.142,313.095 231.886 C 313.010 231.630,312.839 231.776,312.715 232.210 M262.600 238.663 C 260.888 240.231,260.836 240.318,262.238 239.263 C 263.719 238.149,265.127 236.776,264.749 236.815 C 264.667 236.824,263.700 237.655,262.600 238.663 M308.858 240.100 C 308.187 241.255,307.252 242.785,306.780 243.500 C 306.308 244.215,306.004 244.800,306.104 244.800 C 306.345 244.800,308.894 240.951,309.749 239.298 C 310.816 237.236,310.197 237.793,308.858 240.100 M258.881 241.372 C 257.023 242.685,256.762 243.061,258.331 242.162 C 259.063 241.743,259.850 241.175,260.080 240.900 C 260.671 240.193,260.393 240.302,258.881 241.372 M247.000 247.414 C 245.385 248.154,246.351 248.155,248.054 247.416 C 248.794 247.094,249.130 246.839,248.800 246.848 C 248.470 246.857,247.660 247.112,247.000 247.414 M243.200 248.800 C 242.870 249.013,242.150 249.215,241.600 249.248 C 240.781 249.298,240.748 249.338,241.415 249.471 C 241.863 249.560,242.853 249.363,243.615 249.032 C 244.377 248.702,244.730 248.427,244.400 248.422 C 244.070 248.417,243.530 248.587,243.200 248.800 M234.200 250.800 L 232.600 251.086 234.000 251.115 C 234.770 251.131,235.760 250.989,236.200 250.800 C 237.143 250.395,236.462 250.395,234.200 250.800 M299.200 253.400 C 298.005 254.610,297.201 255.581,297.414 255.557 C 297.794 255.514,301.886 251.200,301.547 251.200 C 301.451 251.200,300.395 252.190,299.200 253.400 M227.500 251.889 C 228.215 251.978,229.385 251.978,230.100 251.889 C 230.815 251.801,230.230 251.728,228.800 251.728 C 227.370 251.728,226.785 251.801,227.500 251.889 M223.105 252.283 C 223.602 252.379,224.322 252.375,224.705 252.275 C 225.087 252.175,224.680 252.096,223.800 252.101 C 222.920 252.105,222.607 252.187,223.105 252.283 M294.081 258.603 C 292.476 260.031,291.306 261.192,291.481 261.181 C 291.830 261.161,297.525 256.007,297.200 256.007 C 297.090 256.006,295.687 257.175,294.081 258.603 M289.400 262.635 L 288.200 263.666 289.500 262.806 C 290.215 262.333,290.800 261.868,290.800 261.773 C 290.800 261.473,290.631 261.578,289.400 262.635 M284.881 265.772 C 283.023 267.085,282.762 267.461,284.331 266.562 C 285.063 266.143,285.850 265.575,286.080 265.300 C 286.671 264.593,286.393 264.702,284.881 265.772 M280.500 268.446 C 279.137 269.319,278.695 269.906,279.900 269.243 C 280.818 268.739,282.256 267.627,282.000 267.619 C 281.890 267.616,281.215 267.988,280.500 268.446 M274.000 271.800 C 273.450 272.114,273.180 272.372,273.400 272.372 C 273.620 272.372,274.250 272.114,274.800 271.800 C 275.350 271.486,275.620 271.228,275.400 271.228 C 275.180 271.228,274.550 271.486,274.000 271.800 M270.800 273.200 C 269.810 273.615,269.203 273.965,269.451 273.978 C 270.018 274.006,272.800 272.857,272.800 272.595 C 272.800 272.348,272.912 272.314,270.800 273.200 M261.600 276.418 C 261.162 276.715,261.324 276.752,262.200 276.556 C 263.671 276.227,263.990 275.998,262.967 276.006 C 262.545 276.009,261.930 276.195,261.600 276.418 M258.800 277.218 C 258.362 277.515,258.524 277.552,259.400 277.356 C 260.871 277.027,261.190 276.798,260.167 276.806 C 259.745 276.809,259.130 276.995,258.800 277.218 M252.900 278.676 C 253.285 278.776,253.915 278.776,254.300 278.676 C 254.685 278.575,254.370 278.493,253.600 278.493 C 252.830 278.493,252.515 278.575,252.900 278.676 M123.385 284.100 C 123.280 284.375,123.241 310.610,123.299 342.400 L 123.403 400.200 123.501 342.100 L 123.600 284.000 167.594 284.000 L 211.589 284.000 212.647 285.600 C 213.230 286.480,213.783 287.200,213.877 287.200 C 214.109 287.200,213.667 286.450,212.521 284.900 L 211.559 283.600 167.567 283.600 C 132.741 283.600,123.535 283.704,123.385 284.100 M215.022 289.500 C 217.159 292.795,217.724 293.600,217.899 293.600 C 218.005 293.600,217.771 293.105,217.378 292.500 C 215.241 289.205,214.676 288.400,214.501 288.400 C 214.395 288.400,214.629 288.895,215.022 289.500 M259.815 294.400 C 260.488 295.611,272.112 313.013,272.508 313.400 C 273.203 314.080,272.506 312.983,266.276 303.600 C 261.045 295.722,258.680 292.354,259.815 294.400 M219.022 295.900 C 221.159 299.195,221.724 300.000,221.899 300.000 C 222.005 300.000,221.771 299.505,221.378 298.900 C 219.241 295.605,218.676 294.800,218.501 294.800 C 218.395 294.800,218.629 295.295,219.022 295.900 M223.022 302.300 C 225.159 305.595,225.724 306.400,225.899 306.400 C 226.005 306.400,225.771 305.905,225.378 305.300 C 223.241 302.005,222.676 301.200,222.501 301.200 C 222.395 301.200,222.629 301.695,223.022 302.300 M227.022 308.700 C 229.159 311.995,229.724 312.800,229.899 312.800 C 230.005 312.800,229.771 312.305,229.378 311.700 C 227.241 308.405,226.676 307.600,226.501 307.600 C 226.395 307.600,226.629 308.095,227.022 308.700 M231.809 316.226 C 232.181 316.901,232.841 317.891,233.276 318.426 L 234.067 319.400 233.391 318.174 C 233.019 317.499,232.359 316.509,231.924 315.974 L 231.133 315.000 231.809 316.226 M235.809 322.626 C 236.181 323.301,236.841 324.291,237.276 324.826 L 238.067 325.800 237.391 324.574 C 237.019 323.899,236.359 322.909,235.924 322.374 L 235.133 321.400 235.809 322.626 M239.809 329.026 C 240.181 329.701,240.841 330.691,241.276 331.226 L 242.067 332.200 241.391 330.974 C 241.019 330.299,240.359 329.309,239.924 328.774 L 239.133 327.800 239.809 329.026 M282.215 328.400 C 282.885 329.608,293.712 345.812,294.109 346.200 C 294.799 346.875,294.109 345.788,288.276 337.000 C 283.388 329.636,281.102 326.392,282.215 328.400 M243.809 335.426 C 244.181 336.101,244.841 337.091,245.276 337.626 L 246.067 338.600 245.391 337.374 C 245.019 336.699,244.359 335.709,243.924 335.174 L 243.133 334.200 243.809 335.426 M247.809 341.826 C 248.181 342.501,248.841 343.491,249.276 344.026 L 250.067 345.000 249.391 343.774 C 249.019 343.099,248.359 342.109,247.924 341.574 L 247.133 340.600 247.809 341.826 M251.809 348.226 C 252.181 348.901,252.841 349.891,253.276 350.426 L 254.067 351.400 253.391 350.174 C 253.019 349.499,252.359 348.509,251.924 347.974 L 251.133 347.000 251.809 348.226 M255.809 354.626 C 256.181 355.301,256.841 356.291,257.276 356.826 L 258.067 357.800 257.391 356.574 C 257.019 355.899,256.359 354.909,255.924 354.374 L 255.133 353.400 255.809 354.626 M259.809 361.026 C 260.181 361.701,260.841 362.691,261.276 363.226 L 262.067 364.200 261.391 362.974 C 261.019 362.299,260.359 361.309,259.924 360.774 L 259.133 359.800 259.809 361.026 M304.615 362.400 C 305.282 363.603,315.312 378.612,315.709 379.000 C 316.394 379.670,315.713 378.592,310.276 370.400 C 305.729 363.548,303.526 360.434,304.615 362.400 M263.809 367.426 C 264.181 368.101,264.841 369.091,265.276 369.626 L 266.067 370.600 265.391 369.374 C 265.019 368.699,264.359 367.709,263.924 367.174 L 263.133 366.200 263.809 367.426 M267.809 373.826 C 268.181 374.501,268.841 375.491,269.276 376.026 L 270.067 377.000 269.391 375.774 C 269.019 375.099,268.359 374.109,267.924 373.574 L 267.133 372.600 267.809 373.826 M271.809 380.226 C 272.181 380.901,272.841 381.891,273.276 382.426 L 274.067 383.400 273.391 382.174 C 273.019 381.499,272.359 380.509,271.924 379.974 L 271.133 379.000 271.809 380.226 M275.809 386.626 C 276.181 387.301,276.841 388.291,277.276 388.826 L 278.067 389.800 277.391 388.574 C 277.019 387.899,276.359 386.909,275.924 386.374 L 275.133 385.400 275.809 386.626 M279.809 393.026 C 280.181 393.701,280.841 394.691,281.276 395.226 L 282.067 396.200 281.391 394.974 C 281.019 394.299,280.359 393.309,279.924 392.774 L 279.133 391.800 279.809 393.026 M327.415 397.100 C 328.756 399.185,329.200 399.777,329.200 399.480 C 329.200 399.096,327.155 396.000,326.901 396.000 C 326.795 396.000,327.026 396.495,327.415 397.100 " stroke="none" fill="#8cac94" fill-rule="evenodd"></path><path id="path5" d="M145.500 283.500 C 157.655 283.559,177.545 283.559,189.700 283.500 C 201.855 283.441,191.910 283.393,167.600 283.393 C 143.290 283.393,133.345 283.441,145.500 283.500 " stroke="none" fill="#648c74" fill-rule="evenodd"></path><path id="path6" d="" stroke="none" fill="#5c846c" fill-rule="evenodd"></path></g></svg>