<svg id="svg" version="1.1" xmlns="http://www.w3.org/2000/svg" xmlns:xlink="http://www.w3.org/1999/xlink" width="400" height="400" viewBox="0, 0, 400,400"><g id="svgg"><path id="path0" d="M285.845 141.026 C 285.710 141.378,285.600 165.681,285.600 195.033 L 285.600 248.400 295.601 248.400 L 305.603 248.400 305.501 194.500 L 305.400 140.600 295.745 140.493 C 287.203 140.398,286.063 140.460,285.845 141.026 M10.400 197.173 L 10.400 248.400 20.800 248.400 L 31.200 248.400 31.200 229.047 L 31.200 209.693 32.100 209.452 C 33.251 209.144,55.535 209.134,56.600 209.442 C 57.129 209.595,61.396 216.236,69.190 229.037 L 80.980 248.400 92.714 248.400 C 101.992 248.400,104.385 248.295,104.151 247.900 C 103.988 247.625,97.867 238.074,90.549 226.676 C 77.790 206.804,76.675 204.800,78.374 204.800 C 80.317 204.800,85.628 202.114,89.267 199.292 C 103.137 188.535,103.121 163.619,89.239 153.428 C 87.066 151.834,82.468 149.472,79.971 148.669 C 78.294 148.129,77.334 147.880,72.600 146.756 C 71.184 146.420,61.808 146.232,40.500 146.113 L 10.400 145.946 10.400 197.173 M67.378 162.990 C 75.317 165.246,78.593 169.735,78.332 178.000 C 78.092 185.629,74.960 189.819,67.647 192.295 C 65.731 192.944,34.409 193.590,32.166 193.027 L 31.200 192.785 31.200 177.622 C 31.200 163.526,31.249 162.444,31.900 162.253 C 33.862 161.676,65.034 162.324,67.378 162.990 M146.800 168.668 C 126.371 170.120,114.413 184.959,114.402 208.871 C 114.391 234.201,126.037 248.388,148.000 249.797 C 162.411 250.721,174.286 245.868,180.781 236.400 C 183.092 233.032,184.922 229.212,184.310 229.035 C 183.755 228.875,175.590 228.153,169.743 227.746 L 166.085 227.492 165.300 229.266 C 160.992 239.006,145.284 239.482,139.235 230.055 C 136.963 226.514,134.639 216.691,135.377 213.749 L 135.615 212.800 160.870 212.800 L 186.124 212.800 185.865 207.500 C 184.531 180.234,171.154 166.936,146.800 168.668 M196.647 172.700 C 197.702 174.185,203.748 182.577,210.082 191.349 C 216.417 200.121,221.594 207.591,221.587 207.949 C 221.581 208.307,218.496 212.920,214.732 218.200 C 198.096 241.538,193.600 247.911,193.600 248.154 C 193.600 248.297,198.319 248.365,204.087 248.307 L 214.574 248.200 217.516 243.600 C 225.922 230.455,232.663 220.246,233.010 220.133 C 233.225 220.063,237.478 226.349,242.462 234.103 L 251.523 248.200 262.360 248.306 L 273.196 248.413 268.737 242.106 C 262.194 232.853,248.977 214.253,246.533 210.860 C 244.693 208.307,244.474 207.808,244.868 207.073 C 245.322 206.226,249.185 200.767,251.997 197.000 C 252.819 195.900,256.158 191.310,259.418 186.800 C 262.679 182.290,266.758 176.662,268.484 174.294 L 271.623 169.987 260.782 170.094 L 249.942 170.200 242.138 182.200 C 231.994 197.799,233.518 196.721,229.760 190.958 C 228.053 188.341,224.267 182.555,221.345 178.100 L 216.034 170.000 205.382 170.000 L 194.730 170.000 196.647 172.700 M318.508 170.493 C 318.617 170.772,325.587 188.250,333.997 209.334 C 346.466 240.597,349.241 247.895,349.041 248.894 C 348.516 251.521,344.498 258.969,342.534 260.958 C 339.190 264.343,337.223 265.000,330.500 264.980 L 324.800 264.963 324.800 271.691 L 324.800 278.420 325.900 278.848 C 330.218 280.530,344.555 279.295,349.800 276.790 C 359.384 272.212,362.325 266.876,377.350 226.800 C 382.504 213.050,389.350 194.816,392.561 186.281 C 395.772 177.746,398.400 170.591,398.400 170.381 C 398.400 170.149,394.355 170.000,388.087 170.000 L 377.775 170.000 377.223 171.900 C 376.920 172.945,376.357 174.790,375.972 176.000 C 375.587 177.210,374.523 180.630,373.607 183.600 C 372.690 186.570,371.785 189.450,371.594 190.000 C 371.147 191.290,367.372 203.415,366.364 206.800 C 364.998 211.389,361.705 223.284,360.744 227.100 C 359.410 232.396,359.354 232.340,356.789 223.200 C 355.832 219.790,351.525 206.470,347.218 193.600 L 339.386 170.200 328.848 170.093 C 320.471 170.008,318.350 170.090,318.508 170.493 M155.490 181.404 C 161.446 183.173,165.309 188.577,166.443 196.729 C 167.055 201.128,168.281 200.800,151.200 200.800 C 134.195 200.800,135.354 201.093,135.782 196.903 C 136.994 185.030,145.410 178.411,155.490 181.404 " stroke="none" fill="#054424" fill-rule="evenodd"></path><path id="path2" d="M285.394 194.400 C 285.394 224.430,285.442 236.715,285.500 221.700 C 285.558 206.685,285.558 182.115,285.500 167.100 C 285.442 152.085,285.394 164.370,285.394 194.400 M305.900 174.900 C 305.956 194.095,306.047 218.620,306.104 229.400 C 306.161 240.180,306.251 224.475,306.304 194.500 C 306.357 164.525,306.265 140.000,306.100 140.000 C 305.935 140.000,305.845 155.705,305.900 174.900 M24.129 145.500 C 31.570 145.561,43.630 145.561,50.929 145.500 C 58.228 145.439,52.140 145.389,37.400 145.389 C 22.660 145.389,16.688 145.439,24.129 145.500 M9.696 197.300 C 9.749 225.735,9.839 240.630,9.896 230.400 C 10.170 181.248,10.171 145.600,9.900 145.600 C 9.735 145.600,9.643 168.865,9.696 197.300 M69.200 146.020 C 71.614 146.450,73.506 146.413,71.400 145.977 C 70.520 145.795,69.260 145.658,68.600 145.673 C 67.700 145.693,67.850 145.780,69.200 146.020 M74.600 146.800 C 75.040 146.989,75.670 147.144,76.000 147.144 C 76.378 147.144,76.304 147.017,75.800 146.800 C 75.360 146.611,74.730 146.456,74.400 146.456 C 74.022 146.456,74.096 146.583,74.600 146.800 M77.800 147.600 C 78.240 147.789,78.870 147.944,79.200 147.944 C 79.578 147.944,79.504 147.817,79.000 147.600 C 78.560 147.411,77.930 147.256,77.600 147.256 C 77.222 147.256,77.296 147.383,77.800 147.600 M85.600 150.536 C 85.600 150.640,86.404 151.195,87.388 151.772 C 89.897 153.242,93.697 156.857,95.207 159.211 C 96.662 161.478,97.139 161.824,96.158 159.900 C 94.873 157.381,85.600 149.157,85.600 150.536 M31.782 162.902 C 31.676 163.178,31.637 169.973,31.695 178.002 L 31.800 192.600 47.900 192.607 L 64.000 192.614 48.000 192.502 L 32.000 192.391 32.000 177.600 L 32.000 162.809 47.500 162.700 L 63.000 162.590 47.487 162.495 C 35.347 162.421,31.933 162.509,31.782 162.902 M66.033 163.344 C 66.125 163.423,66.740 163.608,67.400 163.756 C 68.276 163.952,68.438 163.915,68.000 163.618 C 67.460 163.253,65.632 162.998,66.033 163.344 M71.200 165.206 C 72.410 165.861,74.101 167.163,74.957 168.098 C 75.814 169.034,76.316 169.420,76.073 168.955 C 75.462 167.787,73.091 165.765,71.205 164.802 C 68.748 163.549,68.744 163.876,71.200 165.206 M156.600 168.400 C 157.260 168.568,158.250 168.705,158.800 168.705 C 159.692 168.705,159.670 168.672,158.600 168.400 C 157.940 168.232,156.950 168.095,156.400 168.095 C 155.508 168.095,155.530 168.128,156.600 168.400 M161.000 169.200 C 161.440 169.389,162.160 169.538,162.600 169.532 C 163.243 169.523,163.204 169.457,162.400 169.200 C 161.032 168.762,159.981 168.762,161.000 169.200 M200.124 169.499 C 203.162 169.567,208.022 169.567,210.924 169.499 C 213.826 169.431,211.340 169.375,205.400 169.375 C 199.460 169.375,197.086 169.431,200.124 169.499 M255.300 169.499 C 258.325 169.567,263.275 169.567,266.300 169.499 C 269.325 169.431,266.850 169.375,260.800 169.375 C 254.750 169.375,252.275 169.431,255.300 169.499 M323.500 169.499 C 326.415 169.567,331.185 169.567,334.100 169.499 C 337.015 169.431,334.630 169.375,328.800 169.375 C 322.970 169.375,320.585 169.431,323.500 169.499 M381.400 169.481 C 390.319 169.764,399.109 169.774,398.939 169.500 C 398.837 169.335,394.038 169.237,388.276 169.283 C 382.514 169.329,379.420 169.418,381.400 169.481 M194.114 170.061 C 194.385 170.836,197.188 174.800,197.465 174.800 C 197.569 174.800,197.305 174.305,196.877 173.700 C 196.450 173.095,195.601 171.880,194.991 171.000 C 194.382 170.120,193.987 169.697,194.114 170.061 M271.292 171.029 C 270.797 171.783,270.472 172.400,270.569 172.400 C 270.847 172.400,272.504 169.971,272.339 169.806 C 272.257 169.724,271.786 170.274,271.292 171.029 M133.800 171.178 C 132.920 171.595,132.313 171.950,132.451 171.968 C 132.840 172.018,135.600 170.814,135.600 170.595 C 135.600 170.327,135.599 170.327,133.800 171.178 M129.397 173.595 C 126.898 175.257,124.084 177.750,122.391 179.800 C 121.846 180.460,122.840 179.630,124.600 177.956 C 126.360 176.281,128.745 174.331,129.900 173.621 C 131.696 172.518,132.334 172.000,131.897 172.000 C 131.840 172.000,130.715 172.718,129.397 173.595 M169.200 172.124 C 169.200 172.217,169.965 172.798,170.900 173.415 C 171.835 174.032,172.389 174.280,172.131 173.968 C 171.634 173.367,169.200 171.836,169.200 172.124 M100.144 176.400 C 100.144 178.490,100.212 179.345,100.294 178.300 C 100.376 177.255,100.376 175.545,100.294 174.500 C 100.212 173.455,100.144 174.310,100.144 176.400 M269.544 173.500 C 268.393 174.889,267.906 175.600,268.104 175.600 C 268.214 175.600,268.786 174.970,269.373 174.200 C 270.463 172.771,270.595 172.232,269.544 173.500 M77.899 176.200 C 78.016 177.740,78.177 179.075,78.256 179.167 C 78.534 179.488,78.317 175.389,78.003 174.400 C 77.819 173.819,77.775 174.573,77.899 176.200 M175.000 176.800 C 176.306 178.120,177.465 179.200,177.575 179.200 C 177.685 179.200,176.706 178.120,175.400 176.800 C 174.094 175.480,172.935 174.400,172.825 174.400 C 172.715 174.400,173.694 175.480,175.000 176.800 M198.816 176.963 C 200.595 179.440,201.306 179.879,199.657 177.482 C 198.960 176.469,198.178 175.510,197.920 175.350 C 197.661 175.191,198.065 175.916,198.816 176.963 M242.179 180.868 C 239.441 185.090,238.913 185.980,239.492 185.400 C 239.991 184.899,243.711 179.313,244.352 178.100 C 245.347 176.218,244.471 177.334,242.179 180.868 M266.329 177.900 C 265.378 179.018,263.928 181.200,264.135 181.200 C 264.240 181.200,264.972 180.300,265.762 179.200 C 267.185 177.219,267.477 176.550,266.329 177.900 M222.809 179.600 C 223.469 180.877,228.773 188.870,229.311 189.400 C 229.929 190.008,229.388 189.125,225.882 183.800 C 222.603 178.820,221.929 177.899,222.809 179.600 M179.037 181.700 C 179.849 182.965,180.588 184.000,180.679 184.000 C 180.947 184.000,179.500 181.682,178.490 180.494 C 177.979 179.892,178.225 180.435,179.037 181.700 M149.907 181.490 C 150.626 181.579,151.706 181.577,152.307 181.486 C 152.908 181.395,152.320 181.322,151.000 181.324 C 149.680 181.326,149.188 181.401,149.907 181.490 M202.800 182.400 C 203.270 183.060,203.744 183.600,203.854 183.600 C 203.964 183.600,203.670 183.060,203.200 182.400 C 202.730 181.740,202.256 181.200,202.146 181.200 C 202.036 181.200,202.330 181.740,202.800 182.400 M263.144 182.300 C 261.875 183.832,261.419 184.542,261.881 184.265 C 262.393 183.958,264.169 181.600,263.889 181.600 C 263.798 181.600,263.463 181.915,263.144 182.300 M143.400 183.140 C 141.746 184.156,139.645 186.361,138.960 187.800 C 138.646 188.460,138.616 188.652,138.894 188.226 C 140.035 186.480,142.649 183.890,143.980 183.186 C 144.761 182.773,145.220 182.428,145.000 182.419 C 144.780 182.410,144.060 182.735,143.400 183.140 M157.778 182.894 C 158.206 183.172,159.466 184.204,160.578 185.187 L 162.600 186.973 161.000 185.254 C 160.120 184.308,158.860 183.276,158.200 182.961 C 157.540 182.646,157.350 182.616,157.778 182.894 M75.967 185.300 C 75.714 185.795,74.763 187.010,73.853 188.000 L 72.200 189.799 73.933 188.200 C 75.466 186.784,77.155 184.400,76.624 184.400 C 76.516 184.400,76.221 184.805,75.967 185.300 M206.208 187.158 C 207.015 188.281,207.757 189.200,207.857 189.200 C 208.132 189.200,205.652 185.680,205.166 185.379 C 204.932 185.235,205.401 186.035,206.208 187.158 M259.929 186.700 C 258.978 187.818,257.528 190.000,257.735 190.000 C 257.840 190.000,258.572 189.100,259.362 188.000 C 260.785 186.019,261.077 185.350,259.929 186.700 M70.400 190.400 C 69.630 190.822,69.144 191.174,69.320 191.183 C 69.744 191.205,72.000 190.032,72.000 189.790 C 72.000 189.528,71.977 189.537,70.400 190.400 M209.216 191.363 C 209.968 192.409,210.756 193.373,210.967 193.503 C 211.178 193.633,210.735 192.884,209.984 191.837 C 209.232 190.791,208.444 189.827,208.233 189.697 C 208.022 189.567,208.465 190.316,209.216 191.363 M256.915 190.900 C 255.181 193.167,254.266 194.520,254.609 194.313 C 255.081 194.027,257.737 190.400,257.474 190.400 C 257.377 190.400,257.126 190.625,256.915 190.900 M95.075 193.471 C 94.253 194.720,93.909 195.445,94.311 195.081 C 94.999 194.458,97.014 191.200,96.711 191.200 C 96.634 191.200,95.898 192.222,95.075 193.471 M184.056 192.800 C 184.056 193.130,184.211 193.760,184.400 194.200 C 184.617 194.704,184.744 194.778,184.744 194.400 C 184.744 194.070,184.589 193.440,184.400 193.000 C 184.183 192.496,184.056 192.422,184.056 192.800 M233.659 193.881 C 233.321 194.483,233.192 194.495,232.539 193.981 C 231.861 193.448,231.845 193.458,232.349 194.100 C 233.062 195.009,233.474 194.984,234.000 194.000 C 234.519 193.030,234.198 192.918,233.659 193.881 M136.253 195.236 C 136.114 195.931,136.023 197.153,136.051 197.950 C 136.085 198.930,136.210 198.563,136.435 196.818 C 136.789 194.083,136.677 193.113,136.253 195.236 M212.975 196.532 C 213.591 197.339,214.176 198.000,214.275 198.000 C 214.553 198.000,212.821 195.660,212.309 195.344 C 212.059 195.189,212.359 195.724,212.975 196.532 M91.523 197.809 C 90.491 198.794,89.779 199.600,89.940 199.600 C 90.101 199.600,91.028 198.790,92.000 197.800 C 94.277 195.480,93.958 195.486,91.523 197.809 M114.622 197.422 C 114.472 198.225,114.428 198.962,114.526 199.060 C 114.624 199.157,114.827 198.581,114.978 197.778 C 115.128 196.975,115.172 196.238,115.074 196.140 C 114.976 196.043,114.773 196.619,114.622 197.422 M252.744 196.700 C 251.593 198.089,251.106 198.800,251.304 198.800 C 251.414 198.800,251.986 198.170,252.573 197.400 C 253.663 195.971,253.795 195.432,252.744 196.700 M166.101 198.600 C 166.105 199.480,166.187 199.793,166.283 199.295 C 166.379 198.798,166.375 198.078,166.275 197.695 C 166.175 197.313,166.096 197.720,166.101 198.600 M249.925 200.500 C 248.304 202.674,247.040 204.636,247.671 204.000 C 248.486 203.179,251.313 199.200,251.082 199.200 C 250.979 199.200,250.459 199.785,249.925 200.500 M185.669 200.400 C 185.656 200.950,185.795 202.120,185.977 203.000 C 186.189 204.026,186.316 204.241,186.331 203.600 C 186.344 203.050,186.205 201.880,186.023 201.000 C 185.811 199.974,185.684 199.759,185.669 200.400 M216.608 201.558 C 217.415 202.681,218.157 203.600,218.257 203.600 C 218.532 203.600,216.052 200.080,215.566 199.779 C 215.332 199.635,215.801 200.435,216.608 201.558 M87.681 200.972 C 85.823 202.285,85.562 202.661,87.131 201.762 C 87.863 201.343,88.650 200.775,88.880 200.500 C 89.471 199.793,89.193 199.902,87.681 200.972 M113.861 203.492 C 113.721 204.981,113.631 207.820,113.663 209.800 C 113.709 212.713,113.781 212.219,114.041 207.214 C 114.378 200.704,114.293 198.926,113.861 203.492 M219.358 205.381 C 219.938 206.141,220.578 207.176,220.781 207.681 C 221.003 208.234,221.159 208.353,221.175 207.979 C 221.199 207.376,218.945 204.000,218.518 204.000 C 218.401 204.000,218.779 204.621,219.358 205.381 M245.759 206.218 C 244.880 207.370,244.775 207.727,245.197 208.118 C 245.606 208.497,245.655 208.489,245.424 208.083 C 245.253 207.779,245.567 206.994,246.186 206.183 C 246.766 205.422,247.151 204.800,247.041 204.800 C 246.931 204.800,246.354 205.438,245.759 206.218 M77.809 205.585 C 77.598 205.927,80.265 210.400,80.680 210.400 C 80.890 210.400,80.572 209.856,79.082 207.655 C 78.131 206.252,78.007 205.841,78.450 205.561 C 78.812 205.331,78.837 205.210,78.524 205.206 C 78.262 205.203,77.940 205.373,77.809 205.585 M186.537 209.800 C 186.539 211.560,186.609 212.230,186.693 211.289 C 186.778 210.349,186.777 208.909,186.691 208.089 C 186.605 207.270,186.536 208.040,186.537 209.800 M365.029 208.629 C 364.881 209.215,364.838 209.772,364.932 209.866 C 365.027 209.960,365.224 209.558,365.371 208.971 C 365.519 208.385,365.562 207.828,365.468 207.734 C 365.373 207.640,365.176 208.042,365.029 208.629 M31.783 210.100 C 31.678 210.375,31.640 219.240,31.700 229.800 L 31.808 249.000 31.904 229.500 L 32.000 210.000 44.383 210.000 L 56.766 210.000 57.821 211.800 C 58.401 212.790,58.955 213.600,59.052 213.600 C 59.286 213.600,58.475 212.069,57.516 210.700 L 56.746 209.600 44.360 209.600 C 34.821 209.600,31.931 209.715,31.783 210.100 M218.750 211.300 C 218.252 212.015,217.385 213.221,216.822 213.980 C 216.260 214.739,215.992 215.243,216.227 215.101 C 216.733 214.795,220.141 210.000,219.853 210.000 C 219.744 210.000,219.247 210.585,218.750 211.300 M247.586 211.780 C 248.259 212.758,249.001 213.677,249.234 213.821 C 249.468 213.965,248.999 213.165,248.192 212.042 C 246.390 209.534,245.893 209.319,247.586 211.780 M364.446 210.867 C 364.421 211.234,364.296 211.864,364.170 212.267 C 363.952 212.962,363.963 212.963,364.397 212.287 C 364.648 211.896,364.773 211.266,364.673 210.887 C 364.511 210.268,364.488 210.266,364.446 210.867 M136.000 213.500 C 136.000 213.772,154.294 213.768,177.600 213.491 C 182.550 213.432,175.215 213.343,161.300 213.292 C 147.385 213.241,136.000 213.335,136.000 213.500 M114.114 215.400 C 114.117 216.500,114.195 216.903,114.287 216.295 C 114.379 215.686,114.377 214.786,114.282 214.295 C 114.187 213.803,114.111 214.300,114.114 215.400 M60.830 216.600 C 61.324 217.480,61.900 218.380,62.110 218.600 C 62.709 219.228,61.339 216.694,60.596 215.800 C 60.230 215.360,60.335 215.720,60.830 216.600 M84.411 216.400 C 85.128 217.781,87.676 221.600,87.880 221.600 C 88.073 221.600,87.964 221.412,85.912 218.225 C 84.227 215.607,83.610 214.857,84.411 216.400 M214.750 216.900 C 214.252 217.615,213.385 218.821,212.822 219.580 C 212.260 220.339,212.026 220.823,212.302 220.655 C 212.843 220.327,216.153 215.600,215.842 215.600 C 215.739 215.600,215.247 216.185,214.750 216.900 M252.012 217.922 C 252.966 219.308,253.936 220.560,254.167 220.703 C 254.641 220.996,251.792 216.929,250.872 216.000 C 250.545 215.670,251.058 216.535,252.012 217.922 M136.028 219.033 C 136.044 219.895,136.209 220.960,136.396 221.400 C 136.608 221.898,136.651 221.369,136.512 220.000 C 136.244 217.365,135.989 216.857,136.028 219.033 M114.487 219.400 C 114.491 219.840,114.632 220.740,114.800 221.400 C 115.074 222.478,115.106 222.498,115.113 221.600 C 115.117 221.050,114.976 220.150,114.800 219.600 C 114.549 218.816,114.481 218.773,114.487 219.400 M63.230 220.600 C 63.724 221.480,64.300 222.380,64.510 222.600 C 65.109 223.228,63.739 220.694,62.996 219.800 C 62.630 219.360,62.735 219.720,63.230 220.600 M361.829 220.229 C 361.681 220.815,361.638 221.372,361.732 221.466 C 361.827 221.560,362.024 221.158,362.171 220.571 C 362.319 219.985,362.362 219.428,362.268 219.334 C 362.173 219.240,361.976 219.642,361.829 220.229 M256.012 223.522 C 256.966 224.908,257.936 226.160,258.167 226.303 C 258.641 226.596,255.792 222.529,254.872 221.600 C 254.545 221.270,255.058 222.135,256.012 223.522 M136.806 223.433 C 136.809 223.855,136.995 224.470,137.218 224.800 C 137.515 225.238,137.552 225.076,137.356 224.200 C 137.027 222.729,136.798 222.410,136.806 223.433 M208.608 225.642 C 207.801 226.765,207.332 227.565,207.566 227.421 C 208.052 227.120,210.532 223.600,210.257 223.600 C 210.157 223.600,209.415 224.519,208.608 225.642 M66.430 225.800 C 66.924 226.680,67.500 227.580,67.710 227.800 C 68.309 228.428,66.939 225.894,66.196 225.000 C 65.830 224.560,65.935 224.920,66.430 225.800 M229.504 225.700 C 227.220 229.194,226.003 231.200,226.168 231.200 C 226.324 231.200,228.765 227.578,230.144 225.300 C 230.681 224.414,230.112 224.769,229.504 225.700 M237.056 226.900 C 239.191 230.423,241.382 233.512,240.389 231.600 C 239.672 230.219,237.124 226.400,236.920 226.400 C 236.828 226.400,236.889 226.625,237.056 226.900 M91.608 227.600 C 92.259 228.863,95.974 234.466,96.513 235.000 C 97.095 235.576,96.608 234.760,93.885 230.600 C 91.393 226.793,90.762 225.960,91.608 227.600 M166.505 227.087 C 167.114 227.179,168.014 227.177,168.505 227.082 C 168.997 226.987,168.500 226.911,167.400 226.914 C 166.300 226.917,165.897 226.995,166.505 227.087 M260.012 229.122 C 260.966 230.508,261.936 231.760,262.167 231.903 C 262.641 232.196,259.792 228.129,258.872 227.200 C 258.545 226.870,259.058 227.735,260.012 229.122 M171.905 227.483 C 172.402 227.579,173.122 227.575,173.505 227.475 C 173.887 227.375,173.480 227.296,172.600 227.301 C 171.720 227.305,171.407 227.387,171.905 227.483 M358.425 227.526 C 358.390 228.268,359.153 229.600,359.614 229.600 C 359.826 229.600,359.997 229.195,359.994 228.700 C 359.989 227.987,359.910 227.923,359.614 228.390 C 359.310 228.872,359.169 228.799,358.846 227.990 C 358.629 227.446,358.439 227.237,358.425 227.526 M175.300 227.887 C 175.905 227.978,176.895 227.978,177.500 227.887 C 178.105 227.795,177.610 227.720,176.400 227.720 C 175.190 227.720,174.695 227.795,175.300 227.887 M181.105 228.283 C 181.602 228.379,182.322 228.375,182.705 228.275 C 183.087 228.175,182.680 228.096,181.800 228.101 C 180.920 228.105,180.607 228.187,181.105 228.283 M184.293 228.810 C 184.907 229.057,185.117 229.393,184.963 229.885 C 184.763 230.525,184.789 230.522,185.216 229.852 C 185.736 229.037,185.186 228.393,184.000 228.431 C 183.662 228.442,183.790 228.608,184.293 228.810 M139.202 229.222 C 139.201 229.345,139.650 230.055,140.200 230.800 C 140.750 231.545,141.194 231.985,141.186 231.778 C 141.170 231.376,139.205 228.845,139.202 229.222 M205.150 230.500 C 204.652 231.215,203.785 232.421,203.222 233.180 C 202.660 233.939,202.392 234.443,202.627 234.301 C 203.133 233.995,206.541 229.200,206.253 229.200 C 206.144 229.200,205.647 229.785,205.150 230.500 M69.630 231.000 C 70.124 231.880,70.700 232.780,70.910 233.000 C 71.509 233.628,70.139 231.094,69.396 230.200 C 69.030 229.760,69.135 230.120,69.630 231.000 M162.000 232.694 C 160.762 233.969,160.547 234.321,161.310 233.821 C 162.217 233.228,164.379 230.748,163.927 230.820 C 163.857 230.831,162.990 231.675,162.000 232.694 M72.030 235.000 C 72.524 235.880,73.100 236.780,73.310 237.000 C 73.909 237.628,72.539 235.094,71.796 234.200 C 71.430 233.760,71.535 234.120,72.030 235.000 M201.150 236.100 C 200.652 236.815,199.785 238.021,199.222 238.780 C 198.660 239.539,198.392 240.043,198.627 239.901 C 199.133 239.595,202.541 234.800,202.253 234.800 C 202.144 234.800,201.647 235.385,201.150 236.100 M264.791 235.988 C 265.257 236.641,265.842 237.302,266.091 237.456 C 266.341 237.611,266.041 237.076,265.425 236.268 C 264.088 234.515,263.584 234.292,264.791 235.988 M120.359 235.889 C 121.180 237.486,124.682 241.441,126.461 242.781 C 128.036 243.968,128.008 243.919,126.162 242.263 C 125.041 241.258,123.341 239.392,122.383 238.118 C 120.230 235.251,119.772 234.747,120.359 235.889 M150.691 236.289 C 151.401 236.377,152.661 236.379,153.491 236.292 C 154.321 236.205,153.740 236.133,152.200 236.131 C 150.660 236.129,149.981 236.200,150.691 236.289 M244.256 238.100 C 246.391 241.623,248.582 244.712,247.589 242.800 C 246.872 241.419,244.324 237.600,244.120 237.600 C 244.028 237.600,244.089 237.825,244.256 238.100 M219.126 241.700 C 217.069 244.793,215.615 247.253,216.110 246.800 C 216.302 246.625,220.536 240.235,221.344 238.900 C 221.511 238.625,221.574 238.400,221.484 238.400 C 221.394 238.400,220.333 239.885,219.126 241.700 M75.230 240.200 C 75.724 241.080,76.300 241.980,76.510 242.200 C 77.109 242.828,75.739 240.294,74.996 239.400 C 74.630 238.960,74.735 239.320,75.230 240.200 M177.578 241.100 L 176.200 242.600 177.700 241.222 C 179.096 239.938,179.384 239.600,179.078 239.600 C 179.012 239.600,178.337 240.275,177.578 241.100 M100.223 241.100 C 102.641 244.823,103.736 246.400,103.903 246.400 C 104.007 246.400,103.770 245.905,103.377 245.300 C 100.959 241.577,99.864 240.000,99.697 240.000 C 99.593 240.000,99.830 240.495,100.223 241.100 M269.186 242.180 C 269.859 243.158,270.601 244.077,270.834 244.221 C 271.068 244.365,270.599 243.565,269.792 242.442 C 267.990 239.934,267.493 239.719,269.186 242.180 M195.008 244.842 C 194.201 245.965,193.732 246.765,193.966 246.621 C 194.452 246.320,196.932 242.800,196.657 242.800 C 196.557 242.800,195.815 243.719,195.008 244.842 M78.430 245.400 C 78.924 246.280,79.500 247.180,79.710 247.400 C 80.309 248.028,78.939 245.494,78.196 244.600 C 77.830 244.160,77.935 244.520,78.430 245.400 M272.837 247.200 C 273.996 248.996,274.000 249.001,273.998 248.567 C 273.997 248.365,273.532 247.660,272.965 247.000 L 271.934 245.800 272.837 247.200 M348.200 248.000 C 348.200 249.058,348.332 249.716,348.494 249.462 C 348.656 249.208,348.788 248.550,348.788 248.000 C 348.788 247.450,348.656 246.792,348.494 246.538 C 348.332 246.284,348.200 246.942,348.200 248.000 M15.500 249.099 C 18.415 249.167,23.185 249.167,26.100 249.099 C 29.015 249.031,26.630 248.975,20.800 248.975 C 14.970 248.975,12.585 249.031,15.500 249.099 M86.900 249.099 C 90.145 249.166,95.455 249.166,98.700 249.099 C 101.945 249.032,99.290 248.977,92.800 248.977 C 86.310 248.977,83.655 249.032,86.900 249.099 M139.200 249.200 C 140.568 249.638,141.619 249.638,140.600 249.200 C 140.160 249.011,139.440 248.862,139.000 248.868 C 138.357 248.877,138.396 248.943,139.200 249.200 M161.800 249.200 C 160.781 249.638,161.832 249.638,163.200 249.200 C 164.004 248.943,164.043 248.877,163.400 248.868 C 162.960 248.862,162.240 249.011,161.800 249.200 M198.524 249.099 C 201.562 249.167,206.422 249.167,209.324 249.099 C 212.226 249.031,209.740 248.975,203.800 248.975 C 197.860 248.975,195.486 249.031,198.524 249.099 M256.900 249.099 C 259.925 249.167,264.875 249.167,267.900 249.099 C 270.925 249.031,268.450 248.975,262.400 248.975 C 256.350 248.975,253.875 249.031,256.900 249.099 M290.923 249.099 C 293.741 249.168,298.241 249.168,300.923 249.099 C 303.605 249.030,301.300 248.973,295.800 248.973 C 290.300 248.974,288.105 249.030,290.923 249.099 M143.400 250.023 C 145.426 250.442,147.063 250.423,145.400 250.000 C 144.740 249.832,143.660 249.694,143.000 249.693 C 141.991 249.692,142.055 249.745,143.400 250.023 M156.800 250.000 C 155.738 250.224,155.641 250.302,156.400 250.324 C 156.950 250.341,158.120 250.205,159.000 250.023 C 160.334 249.747,160.400 249.693,159.400 249.699 C 158.740 249.702,157.570 249.838,156.800 250.000 M345.478 255.405 C 345.112 256.172,344.895 256.800,344.996 256.800 C 345.270 256.800,346.484 254.351,346.301 254.168 C 346.214 254.081,345.844 254.638,345.478 255.405 M341.578 261.100 L 340.200 262.600 341.700 261.222 C 343.096 259.938,343.384 259.600,343.078 259.600 C 343.012 259.600,342.337 260.275,341.578 261.100 M363.000 263.200 C 362.659 263.860,362.469 264.400,362.579 264.400 C 362.689 264.400,363.059 263.860,363.400 263.200 C 363.741 262.540,363.931 262.000,363.821 262.000 C 363.711 262.000,363.341 262.540,363.000 263.200 M338.400 263.200 C 337.630 263.622,337.144 263.974,337.320 263.983 C 337.744 264.005,340.000 262.832,340.000 262.590 C 340.000 262.328,339.977 262.337,338.400 263.200 M324.168 264.365 C 323.864 264.669,323.993 279.200,324.300 279.200 C 324.465 279.200,324.600 275.915,324.600 271.900 L 324.600 264.600 329.600 264.734 C 332.350 264.808,334.991 264.718,335.470 264.534 C 335.997 264.331,333.977 264.199,330.338 264.198 C 327.037 264.197,324.261 264.272,324.168 264.365 M360.350 267.500 C 359.391 268.985,357.255 271.550,355.603 273.200 C 353.920 274.881,353.322 275.634,354.243 274.911 C 356.972 272.771,363.301 264.800,362.271 264.800 C 362.173 264.800,361.309 266.015,360.350 267.500 M351.100 276.629 C 349.605 277.440,349.696 277.778,351.200 277.000 C 351.860 276.659,352.400 276.294,352.400 276.190 C 352.400 275.932,352.357 275.947,351.100 276.629 M326.600 279.623 C 327.480 279.805,328.740 279.942,329.400 279.927 C 330.300 279.907,330.150 279.820,328.800 279.580 C 326.386 279.150,324.494 279.187,326.600 279.623 M342.200 279.600 C 341.122 279.874,341.102 279.906,342.000 279.913 C 342.550 279.917,343.450 279.776,344.000 279.600 C 345.344 279.169,343.892 279.169,342.200 279.600 M335.091 280.289 C 335.801 280.377,337.061 280.379,337.891 280.292 C 338.721 280.205,338.140 280.133,336.600 280.131 C 335.060 280.129,334.381 280.200,335.091 280.289 " stroke="none" fill="#73967c" fill-rule="evenodd"></path><path id="path3" d="M285.873 140.260 C 285.723 140.410,285.603 140.728,285.606 140.967 C 285.610 141.219,285.747 141.188,285.934 140.893 C 286.183 140.501,288.437 140.410,295.828 140.493 L 305.400 140.600 305.501 194.493 L 305.603 248.386 295.701 248.503 L 285.800 248.621 295.800 248.610 L 305.800 248.600 305.800 194.400 L 305.800 140.200 295.973 140.093 C 290.569 140.034,286.024 140.109,285.873 140.260 M10.185 146.100 C 10.080 146.375,10.041 169.550,10.097 197.600 L 10.200 248.600 20.800 248.600 L 31.400 248.600 31.600 229.100 C 31.710 218.375,31.665 209.600,31.500 209.600 C 31.335 209.600,31.200 218.330,31.200 229.000 L 31.200 248.400 20.800 248.400 L 10.400 248.400 10.400 197.179 L 10.400 145.957 40.100 146.079 C 56.435 146.145,68.900 146.081,67.800 145.935 C 63.789 145.404,10.391 145.557,10.185 146.100 M72.200 146.800 C 73.892 147.231,75.344 147.231,74.000 146.800 C 73.450 146.624,72.550 146.483,72.000 146.487 C 71.102 146.494,71.122 146.526,72.200 146.800 M76.200 147.600 C 77.396 148.114,78.395 148.114,77.600 147.600 C 77.270 147.387,76.640 147.222,76.200 147.234 L 75.400 147.256 76.200 147.600 M84.800 150.579 C 84.800 150.689,85.340 151.059,86.000 151.400 C 86.660 151.741,87.200 151.931,87.200 151.821 C 87.200 151.711,86.660 151.341,86.000 151.000 C 85.340 150.659,84.800 150.469,84.800 150.579 M92.000 155.800 C 92.746 156.570,93.447 157.200,93.557 157.200 C 93.667 157.200,93.146 156.570,92.400 155.800 C 91.654 155.030,90.953 154.400,90.843 154.400 C 90.733 154.400,91.254 155.030,92.000 155.800 M94.000 157.679 C 94.000 158.138,96.515 162.018,96.696 161.838 C 96.790 161.744,96.221 160.709,95.433 159.539 C 94.645 158.368,94.000 157.531,94.000 157.679 M39.300 162.299 C 43.205 162.365,49.595 162.365,53.500 162.299 C 57.405 162.234,54.210 162.180,46.400 162.180 C 38.590 162.180,35.395 162.234,39.300 162.299 M31.200 177.557 C 31.200 191.010,31.271 192.742,31.833 192.957 C 32.181 193.091,39.336 193.158,47.733 193.107 L 63.000 193.014 47.400 192.807 L 31.800 192.600 31.800 177.500 C 31.800 169.195,31.665 162.400,31.500 162.400 C 31.335 162.400,31.200 169.221,31.200 177.557 M64.600 162.800 C 66.292 163.231,67.744 163.231,66.400 162.800 C 65.850 162.624,64.950 162.483,64.400 162.487 C 63.502 162.494,63.522 162.526,64.600 162.800 M73.085 165.822 C 73.792 166.379,74.936 167.502,75.627 168.317 C 76.318 169.133,76.696 169.429,76.467 168.975 C 76.007 168.061,72.597 164.797,72.109 164.804 C 71.939 164.807,72.378 165.265,73.085 165.822 M98.456 166.800 C 98.456 167.130,98.611 167.760,98.800 168.200 C 99.017 168.704,99.144 168.778,99.144 168.400 C 99.144 168.070,98.989 167.440,98.800 167.000 C 98.583 166.496,98.456 166.422,98.456 166.800 M146.800 168.360 C 145.810 168.492,147.790 168.600,151.200 168.601 C 154.982 168.601,156.620 168.498,155.400 168.336 C 153.012 168.019,149.284 168.029,146.800 168.360 M141.000 169.200 L 140.200 169.544 141.000 169.532 C 141.440 169.526,142.250 169.376,142.800 169.200 L 143.800 168.880 142.800 168.868 C 142.250 168.862,141.440 169.011,141.000 169.200 M158.433 168.943 C 158.525 169.021,159.230 169.201,160.000 169.342 C 160.985 169.523,161.222 169.482,160.800 169.206 C 160.258 168.850,158.037 168.603,158.433 168.943 M194.400 169.849 C 194.400 170.194,197.993 175.200,198.240 175.200 C 198.350 175.200,197.606 174.030,196.585 172.600 L 194.730 170.000 205.359 170.000 L 215.989 170.000 217.047 171.600 C 218.204 173.348,218.700 173.726,217.964 172.300 C 216.523 169.504,216.977 169.600,205.130 169.600 C 199.229 169.600,194.400 169.712,194.400 169.849 M248.887 171.300 C 247.406 173.487,247.111 174.000,247.335 174.000 C 247.435 174.000,248.094 173.100,248.800 172.000 L 250.083 170.000 260.862 170.000 L 271.641 170.000 270.571 171.500 L 269.501 173.000 270.716 171.607 C 272.478 169.588,272.539 169.600,260.796 169.600 L 250.038 169.600 248.887 171.300 M318.000 169.900 C 318.000 170.065,322.723 170.149,328.495 170.087 C 338.049 169.984,339.037 170.035,339.496 170.663 C 339.773 171.043,340.000 171.175,340.000 170.956 C 340.000 169.724,338.953 169.600,328.520 169.600 C 322.734 169.600,318.000 169.735,318.000 169.900 M387.781 169.900 C 395.467 169.984,398.243 170.142,398.475 170.507 C 398.694 170.853,398.790 170.791,398.794 170.300 C 398.800 169.648,398.061 169.606,388.100 169.693 L 377.400 169.786 387.781 169.900 M99.400 176.195 C 99.400 179.630,99.517 182.027,99.660 181.520 C 99.803 181.014,99.920 178.620,99.920 176.200 C 99.920 173.780,99.803 171.384,99.660 170.875 C 99.517 170.366,99.400 172.760,99.400 176.195 M77.668 172.400 C 77.688 173.439,78.318 175.146,78.332 174.200 C 78.338 173.760,78.189 173.040,78.000 172.600 C 77.789 172.110,77.661 172.032,77.668 172.400 M168.400 172.101 C 168.510 172.226,169.590 173.002,170.800 173.826 C 172.010 174.650,172.689 174.972,172.309 174.541 C 171.930 174.110,170.850 173.334,169.909 172.816 C 168.969 172.299,168.290 171.977,168.400 172.101 M268.227 174.600 C 267.640 175.370,267.303 175.998,267.480 175.995 C 267.656 175.992,268.207 175.362,268.704 174.595 C 269.868 172.797,269.600 172.800,268.227 174.600 M128.505 174.525 C 127.793 175.006,127.208 175.544,127.205 175.720 C 127.202 175.897,127.830 175.560,128.600 174.973 C 129.370 174.386,130.000 173.836,130.000 173.753 C 130.000 173.527,129.919 173.569,128.505 174.525 M174.783 176.900 C 175.764 177.945,176.619 178.800,176.683 178.800 C 176.984 178.800,176.666 178.441,174.900 176.783 L 173.000 175.000 174.783 176.900 M199.586 177.380 C 200.259 178.358,201.001 179.277,201.234 179.421 C 201.468 179.565,200.999 178.765,200.192 177.642 C 198.390 175.134,197.893 174.919,199.586 177.380 M375.400 176.400 C 375.250 176.873,375.217 177.350,375.327 177.460 C 375.437 177.570,375.650 177.273,375.800 176.800 C 375.950 176.327,375.983 175.850,375.873 175.740 C 375.763 175.630,375.550 175.927,375.400 176.400 M124.386 178.300 L 122.200 180.600 124.500 178.414 C 126.637 176.382,126.983 176.000,126.686 176.000 C 126.624 176.000,125.589 177.035,124.386 178.300 M265.715 178.100 C 263.981 180.367,263.066 181.720,263.409 181.513 C 263.881 181.227,266.537 177.600,266.274 177.600 C 266.177 177.600,265.926 177.825,265.715 178.100 M177.827 180.600 C 179.200 182.400,179.468 182.403,178.304 180.605 C 177.807 179.838,177.256 179.208,177.080 179.205 C 176.903 179.202,177.240 179.830,177.827 180.600 M240.511 184.100 C 237.001 189.527,236.471 190.409,237.088 189.800 C 237.310 189.580,238.830 187.330,240.464 184.800 C 244.147 179.100,244.086 179.200,243.864 179.200 C 243.763 179.200,242.255 181.405,240.511 184.100 M77.850 181.250 C 77.517 182.917,77.840 183.240,78.200 181.600 C 78.352 180.909,78.393 180.259,78.291 180.158 C 78.189 180.056,77.991 180.547,77.850 181.250 M121.293 181.900 C 120.257 183.396,119.921 184.000,120.123 184.000 C 120.217 184.000,120.770 183.280,121.353 182.400 C 122.536 180.612,122.484 180.179,121.293 181.900 M147.517 181.128 C 147.142 181.278,148.818 181.400,151.243 181.400 C 153.667 181.400,155.234 181.283,154.725 181.140 C 153.493 180.794,148.378 180.785,147.517 181.128 M223.421 181.200 C 224.020 182.260,230.008 191.342,230.263 191.575 C 230.830 192.094,229.292 189.526,226.684 185.600 C 224.175 181.822,222.490 179.549,223.421 181.200 M203.191 182.388 C 203.657 183.041,204.242 183.702,204.491 183.856 C 204.741 184.011,204.441 183.476,203.825 182.668 C 202.488 180.915,201.984 180.692,203.191 182.388 M261.408 184.042 C 260.601 185.165,260.132 185.965,260.366 185.821 C 260.852 185.520,263.332 182.000,263.057 182.000 C 262.957 182.000,262.215 182.919,261.408 184.042 M179.800 183.600 C 180.141 184.260,180.511 184.800,180.621 184.800 C 180.731 184.800,180.541 184.260,180.200 183.600 C 179.859 182.940,179.489 182.400,179.379 182.400 C 179.269 182.400,179.459 182.940,179.800 183.600 M98.629 184.629 C 98.481 185.215,98.438 185.772,98.532 185.866 C 98.627 185.960,98.824 185.558,98.971 184.971 C 99.119 184.385,99.162 183.828,99.068 183.734 C 98.973 183.640,98.776 184.042,98.629 184.629 M140.602 184.798 C 140.203 185.239,140.007 185.600,140.167 185.600 C 140.588 185.600,141.728 184.395,141.512 184.179 C 141.411 184.078,141.002 184.356,140.602 184.798 M161.583 185.500 C 162.326 186.435,163.006 187.200,163.094 187.200 C 163.377 187.200,161.663 184.949,160.935 184.364 C 160.548 184.054,160.840 184.565,161.583 185.500 M118.580 186.440 C 118.011 187.562,117.613 188.547,117.695 188.629 C 117.777 188.711,118.327 187.793,118.918 186.589 C 119.508 185.385,119.906 184.400,119.802 184.400 C 119.698 184.400,119.148 185.318,118.580 186.440 M181.407 186.679 C 182.007 188.114,182.400 188.762,182.400 188.316 C 182.400 187.884,181.185 185.200,180.989 185.200 C 180.879 185.200,181.067 185.866,181.407 186.679 M206.816 187.363 C 207.568 188.409,208.356 189.373,208.567 189.503 C 208.778 189.633,208.335 188.884,207.584 187.837 C 206.832 186.791,206.044 185.827,205.833 185.697 C 205.622 185.567,206.065 186.316,206.816 187.363 M259.315 186.900 C 257.491 189.284,256.680 190.511,257.095 190.259 C 257.615 189.944,260.162 186.400,259.868 186.400 C 259.775 186.400,259.526 186.625,259.315 186.900 M73.344 188.921 C 72.434 189.624,71.354 190.428,70.944 190.706 C 70.535 190.984,70.740 190.952,71.400 190.635 C 72.514 190.099,75.648 187.627,75.200 187.637 C 75.090 187.639,74.255 188.217,73.344 188.921 M163.878 188.995 C 164.244 189.762,164.614 190.319,164.701 190.232 C 164.884 190.049,163.670 187.600,163.396 187.600 C 163.295 187.600,163.512 188.228,163.878 188.995 M371.400 189.200 C 371.250 189.673,371.217 190.150,371.327 190.260 C 371.437 190.370,371.650 190.073,371.800 189.600 C 371.950 189.127,371.983 188.650,371.873 188.540 C 371.763 188.430,371.550 188.727,371.400 189.200 M210.412 192.322 C 211.366 193.708,212.336 194.960,212.567 195.103 C 213.041 195.396,210.192 191.329,209.272 190.400 C 208.945 190.070,209.458 190.935,210.412 192.322 M95.853 191.700 L 95.133 193.000 95.958 192.000 C 96.689 191.113,97.014 190.400,96.686 190.400 C 96.624 190.400,96.249 190.985,95.853 191.700 M164.812 191.200 C 164.812 191.530,164.987 192.070,165.200 192.400 C 165.545 192.933,165.588 192.933,165.588 192.400 C 165.588 192.070,165.413 191.530,165.200 191.200 C 164.855 190.667,164.812 190.667,164.812 191.200 M255.008 192.842 C 254.201 193.965,253.732 194.765,253.966 194.621 C 254.452 194.320,256.932 190.800,256.657 190.800 C 256.557 190.800,255.815 191.719,255.008 192.842 M346.412 191.200 C 346.412 191.530,346.587 192.070,346.800 192.400 C 347.145 192.933,347.188 192.933,347.188 192.400 C 347.188 192.070,347.013 191.530,346.800 191.200 C 346.455 190.667,346.412 190.667,346.412 191.200 M65.600 192.400 C 64.796 192.657,64.757 192.723,65.400 192.732 C 65.840 192.738,66.560 192.589,67.000 192.400 C 68.019 191.962,66.968 191.962,65.600 192.400 M136.200 193.600 C 136.048 194.291,136.007 194.941,136.109 195.042 C 136.211 195.144,136.409 194.653,136.550 193.950 C 136.883 192.283,136.560 191.960,136.200 193.600 M93.667 194.777 C 92.970 195.644,92.400 196.467,92.400 196.607 C 92.400 196.836,93.233 195.880,94.758 193.900 C 95.852 192.482,94.892 193.252,93.667 194.777 M165.680 193.800 C 165.680 194.240,165.824 195.050,166.000 195.600 C 166.254 196.392,166.320 196.433,166.320 195.800 C 166.320 195.360,166.176 194.550,166.000 194.000 C 165.746 193.208,165.680 193.167,165.680 193.800 M347.212 193.600 C 347.212 193.930,347.387 194.470,347.600 194.800 C 347.945 195.333,347.988 195.333,347.988 194.800 C 347.988 194.470,347.813 193.930,347.600 193.600 C 347.255 193.067,347.212 193.067,347.212 193.600 M184.244 195.000 C 184.573 196.471,184.802 196.790,184.794 195.767 C 184.791 195.345,184.605 194.730,184.382 194.400 C 184.085 193.962,184.048 194.124,184.244 195.000 M115.449 195.015 C 115.312 195.373,115.218 196.056,115.241 196.533 C 115.267 197.081,115.403 196.886,115.610 196.003 C 115.960 194.516,115.865 193.933,115.449 195.015 M213.696 196.995 C 214.193 197.762,214.744 198.392,214.920 198.395 C 215.097 198.398,214.760 197.770,214.173 197.000 C 212.800 195.200,212.532 195.197,213.696 196.995 M251.944 197.100 C 250.675 198.632,250.219 199.342,250.681 199.065 C 251.193 198.758,252.969 196.400,252.689 196.400 C 252.598 196.400,252.263 196.715,251.944 197.100 M135.660 198.220 C 135.561 200.886,135.041 200.800,151.200 200.800 C 166.826 200.800,166.844 200.798,166.753 198.820 C 166.709 197.873,166.687 197.886,166.449 199.000 L 166.192 200.200 151.196 200.200 L 136.200 200.200 135.960 198.400 L 135.720 196.600 135.660 198.220 M185.072 199.000 C 185.199 200.100,185.369 201.075,185.451 201.167 C 185.732 201.482,185.520 198.999,185.180 198.000 C 184.951 197.326,184.916 197.651,185.072 199.000 M114.653 199.236 C 114.514 199.931,114.422 201.063,114.449 201.750 C 114.478 202.494,114.638 202.040,114.843 200.628 C 115.211 198.104,115.076 197.118,114.653 199.236 M88.354 199.952 C 87.339 200.749,86.169 201.632,85.754 201.915 C 85.339 202.198,85.720 202.052,86.600 201.590 C 88.240 200.729,90.608 198.860,90.346 198.632 C 90.266 198.562,89.369 199.156,88.354 199.952 M249.150 200.900 C 248.652 201.615,247.785 202.821,247.222 203.580 C 246.660 204.339,246.392 204.843,246.627 204.701 C 247.133 204.395,250.541 199.600,250.253 199.600 C 250.144 199.600,249.647 200.185,249.150 200.900 M217.143 201.718 C 217.840 202.731,218.622 203.690,218.880 203.850 C 219.139 204.009,218.735 203.284,217.984 202.237 C 216.205 199.760,215.494 199.321,217.143 201.718 M185.915 207.500 L 186.124 212.800 160.869 212.800 L 135.615 212.800 135.388 213.706 C 135.263 214.204,135.335 215.779,135.548 217.206 L 135.935 219.800 135.868 216.600 L 135.800 213.400 161.000 213.200 L 186.200 213.000 186.307 210.000 C 186.365 208.350,186.254 205.920,186.060 204.600 C 185.797 202.819,185.760 203.567,185.915 207.500 M220.185 205.900 C 220.802 206.835,221.383 207.600,221.476 207.600 C 221.764 207.600,220.233 205.166,219.632 204.669 C 219.320 204.411,219.568 204.965,220.185 205.900 M77.856 206.900 C 79.991 210.423,82.182 213.512,81.189 211.600 C 80.472 210.219,77.924 206.400,77.720 206.400 C 77.628 206.400,77.689 206.625,77.856 206.900 M114.128 208.800 C 114.128 210.230,114.201 210.815,114.289 210.100 C 114.378 209.385,114.378 208.215,114.289 207.500 C 114.201 206.785,114.128 207.370,114.128 208.800 M245.005 208.700 C 245.363 209.305,246.200 210.430,246.865 211.200 C 247.690 212.156,247.536 211.807,246.379 210.100 C 244.649 207.549,243.832 206.715,245.005 208.700 M38.300 209.499 C 41.655 209.566,47.145 209.566,50.500 209.499 C 53.855 209.432,51.110 209.378,44.400 209.378 C 37.690 209.378,34.945 209.432,38.300 209.499 M365.029 210.229 C 364.881 210.815,364.838 211.372,364.932 211.466 C 365.027 211.560,365.224 211.158,365.371 210.571 C 365.519 209.985,365.562 209.428,365.468 209.334 C 365.373 209.240,365.176 209.642,365.029 210.229 M57.847 211.200 C 59.212 213.261,59.488 213.263,58.312 211.203 C 57.810 210.325,57.262 209.605,57.094 209.603 C 56.926 209.601,57.265 210.320,57.847 211.200 M219.923 210.300 C 218.998 211.379,216.609 215.079,217.276 214.400 C 218.067 213.596,220.914 209.600,220.696 209.600 C 220.601 209.600,220.254 209.915,219.923 210.300 M364.229 213.029 C 364.081 213.615,364.038 214.172,364.132 214.266 C 364.227 214.360,364.424 213.958,364.571 213.371 C 364.719 212.785,364.762 212.228,364.668 212.134 C 364.573 212.040,364.376 212.442,364.229 213.029 M59.724 214.200 C 60.062 214.860,60.638 215.760,61.004 216.200 C 61.370 216.640,61.265 216.280,60.770 215.400 C 59.680 213.458,58.864 212.522,59.724 214.200 M114.440 216.633 C 114.462 217.495,114.627 218.650,114.807 219.200 C 115.011 219.821,115.051 219.291,114.912 217.800 C 114.654 215.021,114.382 214.349,114.440 216.633 M215.525 216.500 C 213.904 218.674,212.640 220.636,213.271 220.000 C 214.086 219.179,216.913 215.200,216.682 215.200 C 216.579 215.200,216.059 215.785,215.525 216.500 M250.816 216.963 C 252.595 219.440,253.306 219.879,251.657 217.482 C 250.960 216.469,250.178 215.510,249.920 215.350 C 249.661 215.191,250.065 215.916,250.816 216.963 M85.056 218.100 C 87.191 221.623,89.382 224.712,88.389 222.800 C 87.672 221.419,85.124 217.600,84.920 217.600 C 84.828 217.600,84.889 217.825,85.056 218.100 M62.924 219.400 C 63.262 220.060,63.838 220.960,64.204 221.400 C 64.570 221.840,64.465 221.480,63.970 220.600 C 62.880 218.658,62.064 217.722,62.924 219.400 M229.484 225.100 C 225.447 231.301,225.510 231.200,225.736 231.200 C 225.837 231.200,227.403 228.905,229.217 226.100 C 231.030 223.295,232.587 220.917,232.675 220.815 C 232.764 220.713,233.192 220.853,233.627 221.124 C 234.357 221.580,234.379 221.556,233.913 220.809 C 233.132 219.559,233.018 219.671,229.484 225.100 M254.973 222.818 C 257.231 225.974,258.035 226.656,255.988 223.678 C 255.034 222.292,254.064 221.040,253.833 220.897 C 253.601 220.754,254.114 221.618,254.973 222.818 M115.268 221.800 C 115.262 222.240,115.411 222.960,115.600 223.400 C 116.038 224.419,116.038 223.368,115.600 222.000 C 115.343 221.196,115.277 221.157,115.268 221.800 M136.068 221.600 C 136.088 222.639,136.718 224.346,136.732 223.400 C 136.738 222.960,136.589 222.240,136.400 221.800 C 136.189 221.310,136.061 221.232,136.068 221.600 M211.129 222.700 C 210.088 223.924,208.628 226.154,209.030 225.905 C 209.477 225.629,212.132 222.000,211.887 222.000 C 211.797 222.000,211.456 222.315,211.129 222.700 M66.124 224.600 C 66.462 225.260,67.038 226.160,67.404 226.600 C 67.770 227.040,67.665 226.680,67.170 225.800 C 66.080 223.858,65.264 222.922,66.124 224.600 M361.029 224.629 C 360.881 225.215,360.838 225.772,360.932 225.866 C 361.027 225.960,361.224 225.558,361.371 224.971 C 361.519 224.385,361.562 223.828,361.468 223.734 C 361.373 223.640,361.176 224.042,361.029 224.629 M236.411 225.200 C 237.128 226.581,239.676 230.400,239.880 230.400 C 240.073 230.400,239.964 230.212,237.912 227.025 C 236.227 224.407,235.610 223.657,236.411 225.200 M258.973 228.418 C 261.231 231.574,262.035 232.256,259.988 229.278 C 259.034 227.892,258.064 226.640,257.833 226.497 C 257.601 226.354,258.114 227.218,258.973 228.418 M137.600 226.953 C 137.600 227.382,138.790 229.600,139.021 229.600 C 139.131 229.600,138.923 229.015,138.559 228.300 C 137.817 226.840,137.600 226.536,137.600 226.953 M360.249 227.415 C 360.112 227.773,360.015 228.366,360.034 228.733 C 360.053 229.100,360.227 228.869,360.421 228.220 C 360.798 226.958,360.665 226.333,360.249 227.415 M165.604 227.500 C 165.606 227.665,167.361 227.818,169.504 227.841 C 172.540 227.873,173.003 227.813,171.600 227.570 C 169.238 227.162,165.599 227.119,165.604 227.500 M68.524 228.600 C 68.862 229.260,69.438 230.160,69.804 230.600 C 70.170 231.040,70.065 230.680,69.570 229.800 C 68.480 227.858,67.664 226.922,68.524 228.600 M176.033 228.151 C 176.125 228.235,177.640 228.402,179.400 228.523 C 181.806 228.688,182.153 228.658,180.800 228.401 C 178.950 228.050,175.736 227.881,176.033 228.151 M164.678 229.805 C 164.312 230.572,164.095 231.200,164.196 231.200 C 164.470 231.200,165.684 228.751,165.501 228.568 C 165.414 228.481,165.044 229.038,164.678 229.805 M92.537 229.760 C 92.883 230.288,94.092 232.178,95.223 233.960 C 96.354 235.742,97.373 237.200,97.486 237.200 C 97.599 237.200,97.432 236.795,97.113 236.300 C 96.795 235.805,95.587 233.915,94.429 232.100 C 93.271 230.285,92.230 228.800,92.115 228.800 C 92.001 228.800,92.191 229.232,92.537 229.760 M206.323 229.500 C 205.398 230.579,203.009 234.279,203.676 233.600 C 204.467 232.796,207.314 228.800,207.096 228.800 C 207.001 228.800,206.654 229.115,206.323 229.500 M358.412 228.926 C 358.390 229.510,359.218 230.800,359.614 230.800 C 359.826 230.800,360.000 230.519,360.000 230.176 C 360.000 229.833,359.831 229.657,359.625 229.785 C 359.418 229.912,359.064 229.698,358.837 229.308 C 358.610 228.919,358.419 228.747,358.412 228.926 M183.482 231.811 C 182.892 233.015,182.494 234.000,182.598 234.000 C 182.867 234.000,184.884 229.951,184.705 229.771 C 184.623 229.689,184.073 230.607,183.482 231.811 M140.000 231.325 C 140.000 231.394,140.573 231.979,141.274 232.625 L 142.549 233.800 141.574 232.522 C 140.747 231.437,140.000 230.869,140.000 231.325 M162.372 232.911 C 161.587 233.620,160.597 234.428,160.172 234.706 C 159.747 234.984,159.940 234.955,160.600 234.641 C 161.260 234.328,162.329 233.515,162.975 232.836 C 164.499 231.233,164.188 231.271,162.372 232.911 M71.724 233.800 C 72.062 234.460,72.638 235.360,73.004 235.800 C 73.370 236.240,73.265 235.880,72.770 235.000 C 71.680 233.058,70.864 232.122,71.724 233.800 M119.771 234.300 C 120.588 235.821,121.994 237.858,121.997 237.527 C 122.001 237.191,119.540 233.200,119.330 233.200 C 119.247 233.200,119.446 233.695,119.771 234.300 M263.808 235.158 C 264.615 236.281,265.357 237.200,265.457 237.200 C 265.732 237.200,263.252 233.680,262.766 233.379 C 262.532 233.235,263.001 234.035,263.808 235.158 M180.985 236.100 C 180.351 237.061,180.166 237.552,180.558 237.229 C 181.218 236.687,182.596 234.400,182.263 234.400 C 182.177 234.400,181.602 235.165,180.985 236.100 M201.925 235.700 C 200.304 237.874,199.040 239.836,199.671 239.200 C 200.486 238.379,203.313 234.400,203.082 234.400 C 202.979 234.400,202.459 234.985,201.925 235.700 M243.611 236.400 C 244.328 237.781,246.876 241.600,247.080 241.600 C 247.273 241.600,247.164 241.412,245.112 238.225 C 243.427 235.607,242.810 234.857,243.611 236.400 M148.476 236.460 C 148.984 236.603,150.660 236.720,152.200 236.720 C 153.740 236.720,155.416 236.603,155.924 236.460 C 156.432 236.317,154.756 236.200,152.200 236.200 C 149.644 236.200,147.968 236.317,148.476 236.460 M220.010 239.700 C 217.048 244.299,216.592 245.058,217.072 244.600 C 217.570 244.125,221.271 238.588,221.952 237.300 C 222.942 235.428,222.060 236.519,220.010 239.700 M74.924 239.000 C 75.262 239.660,75.838 240.560,76.204 241.000 C 76.570 241.440,76.465 241.080,75.970 240.200 C 74.880 238.258,74.064 237.322,74.924 239.000 M123.370 239.326 C 123.926 240.055,125.151 241.252,126.091 241.985 C 127.450 243.047,127.270 242.775,125.212 240.660 C 122.322 237.691,121.878 237.369,123.370 239.326 M177.188 240.700 L 174.600 243.400 177.300 240.812 C 178.785 239.388,180.000 238.173,180.000 238.112 C 180.000 237.817,179.593 238.192,177.188 240.700 M99.457 240.500 C 99.625 240.775,100.800 242.620,102.070 244.600 L 104.378 248.200 92.737 248.306 C 82.020 248.404,81.052 248.356,80.527 247.706 C 80.009 247.065,79.996 247.083,80.392 247.900 L 80.828 248.800 92.857 248.800 C 103.641 248.800,104.861 248.735,104.644 248.170 C 104.315 247.312,99.564 240.000,99.335 240.000 C 99.235 240.000,99.290 240.225,99.457 240.500 M268.638 242.000 C 269.428 243.100,270.150 244.000,270.241 244.000 C 270.541 244.000,267.806 240.015,267.501 240.007 C 267.336 240.003,267.848 240.900,268.638 242.000 M197.529 241.900 C 196.578 243.018,195.128 245.200,195.335 245.200 C 195.440 245.200,196.172 244.300,196.962 243.200 C 198.385 241.219,198.677 240.550,197.529 241.900 M77.324 243.000 C 77.662 243.660,78.238 244.560,78.604 245.000 C 78.970 245.440,78.865 245.080,78.370 244.200 C 77.280 242.258,76.464 241.322,77.324 243.000 M128.689 244.030 C 129.178 244.539,129.678 244.855,129.801 244.732 C 129.924 244.609,129.524 244.192,128.912 243.806 L 127.800 243.104 128.689 244.030 M170.600 245.600 C 169.940 246.037,169.580 246.392,169.800 246.388 C 170.201 246.382,172.376 244.823,172.000 244.812 C 171.890 244.808,171.260 245.163,170.600 245.600 M272.177 246.900 L 273.241 248.400 262.469 248.400 C 252.679 248.400,251.648 248.336,251.149 247.699 C 250.651 247.063,250.642 247.072,251.049 247.799 C 251.519 248.639,273.600 249.317,273.600 248.491 C 273.600 248.314,273.041 247.547,272.357 246.785 L 271.114 245.400 272.177 246.900 M348.893 248.000 C 348.893 248.770,348.975 249.085,349.076 248.700 C 349.176 248.315,349.176 247.685,349.076 247.300 C 348.975 246.915,348.893 247.230,348.893 248.000 M214.547 248.013 C 214.278 248.282,210.485 248.387,203.667 248.313 C 197.910 248.251,193.200 248.335,193.200 248.500 C 193.200 249.141,214.262 248.848,214.800 248.200 C 215.364 247.521,215.177 247.383,214.547 248.013 M137.600 248.382 C 137.930 248.605,138.545 248.791,138.967 248.794 C 139.990 248.802,139.671 248.573,138.200 248.244 C 137.324 248.048,137.162 248.085,137.600 248.382 M163.400 248.400 C 162.896 248.617,162.822 248.744,163.200 248.744 C 163.530 248.744,164.160 248.589,164.600 248.400 C 165.104 248.183,165.178 248.056,164.800 248.056 C 164.470 248.056,163.840 248.211,163.400 248.400 M141.000 249.200 C 141.440 249.389,142.160 249.538,142.600 249.532 C 143.243 249.523,143.204 249.457,142.400 249.200 C 141.032 248.762,139.981 248.762,141.000 249.200 M159.800 249.200 C 158.711 249.477,158.693 249.507,159.600 249.525 C 160.150 249.535,160.960 249.389,161.400 249.200 C 162.386 248.776,161.466 248.776,159.800 249.200 M147.900 250.155 C 149.822 250.362,152.578 250.362,154.500 250.155 C 157.528 249.829,157.255 249.800,151.200 249.800 C 145.145 249.800,144.872 249.829,147.900 250.155 M347.000 253.061 C 346.664 253.865,346.482 254.615,346.595 254.728 C 346.708 254.841,346.800 254.835,346.800 254.716 C 346.800 254.596,347.072 253.846,347.405 253.049 C 347.738 252.252,347.921 251.600,347.811 251.600 C 347.701 251.600,347.336 252.258,347.000 253.061 M365.472 257.419 C 364.532 259.389,364.664 259.724,365.647 257.862 C 366.093 257.016,366.387 256.254,366.301 256.167 C 366.214 256.081,365.841 256.644,365.472 257.419 M344.435 258.143 C 343.624 259.456,340.526 262.500,338.978 263.506 C 338.550 263.784,338.749 263.753,339.419 263.437 C 341.218 262.590,346.498 256.800,345.472 256.800 C 345.358 256.800,344.892 257.404,344.435 258.143 M363.000 262.400 C 362.659 263.060,362.469 263.600,362.579 263.600 C 362.689 263.600,363.059 263.060,363.400 262.400 C 363.741 261.740,363.931 261.200,363.821 261.200 C 363.711 261.200,363.341 261.740,363.000 262.400 M336.200 264.400 C 335.696 264.617,335.622 264.744,336.000 264.744 C 336.330 264.744,336.960 264.589,337.400 264.400 C 337.904 264.183,337.978 264.056,337.600 264.056 C 337.270 264.056,336.640 264.211,336.200 264.400 M360.338 266.800 C 359.320 268.340,358.603 269.598,358.744 269.595 C 358.997 269.590,360.224 267.815,361.710 265.300 C 363.055 263.025,362.256 263.900,360.338 266.800 M324.577 264.915 C 324.469 265.198,324.429 268.483,324.490 272.215 L 324.600 279.000 325.600 279.096 C 326.585 279.191,326.587 279.186,325.700 278.809 C 324.454 278.278,324.266 264.998,325.500 264.676 C 326.156 264.504,326.155 264.490,325.487 264.446 C 325.096 264.421,324.686 264.632,324.577 264.915 M329.511 265.093 C 330.451 265.178,331.891 265.177,332.711 265.091 C 333.530 265.005,332.760 264.936,331.000 264.937 C 329.240 264.939,328.570 265.009,329.511 265.093 M355.600 272.679 C 353.836 274.483,353.514 274.932,354.600 274.077 C 355.926 273.032,358.719 269.976,358.317 270.010 C 358.253 270.015,357.030 271.216,355.600 272.679 M350.000 276.800 C 349.230 277.222,348.744 277.574,348.920 277.583 C 349.344 277.605,351.600 276.432,351.600 276.190 C 351.600 275.928,351.577 275.937,350.000 276.800 M344.400 278.800 C 343.576 279.064,343.541 279.126,344.200 279.154 C 344.640 279.173,345.270 279.013,345.600 278.800 C 346.301 278.347,345.814 278.347,344.400 278.800 M330.200 279.662 C 332.845 280.016,339.402 280.025,341.348 279.677 C 342.199 279.525,339.589 279.399,335.548 279.397 C 331.353 279.395,329.058 279.509,330.200 279.662 " stroke="none" fill="#548064" fill-rule="evenodd"></path><path id="path4" d="M143.700 200.299 C 147.825 200.364,154.575 200.364,158.700 200.299 C 162.825 200.234,159.450 200.181,151.200 200.181 C 142.950 200.181,139.575 200.234,143.700 200.299 M114.093 212.400 C 114.093 213.170,114.175 213.485,114.276 213.100 C 114.376 212.715,114.376 212.085,114.276 211.700 C 114.175 211.315,114.093 211.630,114.093 212.400 M135.701 215.000 C 135.705 215.880,135.787 216.193,135.883 215.695 C 135.979 215.198,135.975 214.478,135.875 214.095 C 135.775 213.713,135.696 214.120,135.701 215.000 M177.381 240.900 L 175.800 242.600 177.500 241.019 C 179.081 239.548,179.384 239.200,179.081 239.200 C 179.016 239.200,178.251 239.965,177.381 240.900 " stroke="none" fill="#648c6f" fill-rule="evenodd"></path></g></svg>